<?xml version="1.0" encoding="UTF-8"?>
<svg version="1.1" xmlns="http://www.w3.org/2000/svg" width="512" height="512">
<path d="M0 0 C6.3487178 4.94842018 10.85677937 10.6393407 14.35546875 17.8359375 C15.6698291 17.84995605 15.6698291 17.84995605 17.01074219 17.86425781 C20.32138229 17.90877209 23.63082474 17.97060043 26.94091797 18.04345703 C28.36235119 18.07135342 29.78393051 18.09272054 31.20556641 18.10693359 C47.04539154 18.27460994 60.37261364 22.0496894 72.16796875 33.0859375 C80.84833228 42.16575139 82.85524547 51.64354951 82.6328125 63.78125 C82.23336532 72.37035799 78.14855357 79.61802646 72.35546875 85.8359375 C71.34384674 86.4810025 70.33222473 87.1260675 69.28994751 87.79067993 C67.25313398 89.49253874 66.45491571 90.43891303 65.80433273 93.03625107 C65.6038991 95.85539825 65.59399997 98.6208198 65.64599609 101.44677734 C65.63968925 103.05033081 65.63968925 103.05033081 65.633255 104.6862793 C65.62554075 108.22371727 65.65917006 111.75959556 65.69140625 115.296875 C65.69031199 117.7648655 65.68600174 120.23285648 65.67861938 122.70083618 C65.66519399 129.20872156 65.68405479 135.71605616 65.71307373 142.22387695 C65.75835949 152.60369094 65.77392251 162.98319719 65.75352859 173.3630867 C65.75389856 176.97188745 65.7795729 180.57988803 65.80722046 184.18856812 C65.84789282 199.28372797 64.8163382 212.5977507 57.54296875 226.1484375 C57.02150269 227.14858887 57.02150269 227.14858887 56.48950195 228.16894531 C49.73380236 240.87070724 40.55836403 251.80452853 29.35546875 260.8359375 C29.96804444 264.39038902 30.3830308 264.86056742 33.29296875 267.4609375 C39.69107204 271.64529705 46.91061828 271.81098785 54.33496094 272.47705078 C78.08631285 274.62769304 101.00316753 280.51250867 118.35546875 297.8359375 C119.07863281 298.5475 119.80179687 299.2590625 120.546875 299.9921875 C133.52312809 313.58401237 142.35546875 341.10743884 142.35546875 359.8359375 C143.34546875 359.5059375 144.33546875 359.1759375 145.35546875 358.8359375 C148.32546875 358.8359375 151.29546875 358.8359375 154.35546875 358.8359375 C154.35546875 324.1859375 154.35546875 289.5359375 154.35546875 253.8359375 C149.07546875 253.8359375 143.79546875 253.8359375 138.35546875 253.8359375 C128.86221648 250.78872072 122.95651217 245.77168171 118.30078125 236.984375 C116.30804837 232.45543663 116.19704828 228.18542135 116.1784668 223.28857422 C116.1718956 222.53352097 116.1653244 221.77846771 116.15855408 221.00053406 C116.13887089 218.50556325 116.12716749 216.0106526 116.1171875 213.515625 C116.11311197 212.66020237 116.10903645 211.80477974 116.10483742 210.92343521 C116.08399446 206.39264418 116.069687 201.86188325 116.06030273 197.33105469 C116.04926262 192.67080829 116.01488554 188.01104254 115.97513103 183.3509655 C115.94887509 179.75107997 115.9406028 176.15130722 115.93702126 172.55133438 C115.93217578 170.834675 115.92062052 169.11801997 115.90198326 167.40145493 C115.79660065 157.04903041 115.94316549 147.97237606 122.21484375 139.25 C128.74231497 133.07317806 135.38535516 128.7843618 144.58227539 128.65893555 C145.40736099 128.64610031 146.23244659 128.63326508 147.08253479 128.62004089 C147.96795456 128.61265396 148.85337433 128.60526703 149.765625 128.59765625 C150.68830673 128.5895845 151.61098846 128.58151276 152.56163025 128.57319641 C154.51592137 128.55937595 156.47023642 128.5486447 158.42456055 128.54077148 C160.40770625 128.52928765 162.39082193 128.50889332 164.3737793 128.47924805 C188.26747519 128.12226853 188.26747519 128.12226853 198.16796875 135.3359375 C206.47131668 143.67466985 208.1195981 153.11014586 208.11219788 164.34002686 C208.09150604 166.04180224 208.06970523 167.74356446 208.046875 169.4453125 C208.04328968 171.22503355 208.04194221 173.00476037 208.04270935 174.78448486 C208.03804587 178.49292148 208.01341537 182.20047646 207.97290039 185.90869141 C207.92178417 190.64515535 207.91046351 195.38065921 207.91273594 200.11736679 C207.91191787 203.78414959 207.89542945 207.45072554 207.87373161 211.11743927 C207.86423706 212.86361379 207.85828483 214.60981153 207.85605049 216.35601044 C207.84949725 218.79861412 207.82313966 221.24022876 207.79125977 223.68261719 C207.79261932 224.39241226 207.79397888 225.10220734 207.79537964 225.83351135 C207.63014257 234.55322926 204.35031163 240.59327413 198.48046875 246.8515625 C189.91845571 254.84697173 182.38050257 253.8359375 170.35546875 253.8359375 C170.68546875 288.8159375 171.01546875 323.7959375 171.35546875 359.8359375 C174.65546875 361.1559375 177.95546875 362.4759375 181.35546875 363.8359375 C191.17722417 369.42085725 197.69342184 377.83859354 200.91716003 388.734375 C201.37921719 390.94980435 201.50295173 392.96848507 201.5324707 395.23046875 C201.54530594 396.09236816 201.55814117 396.95426758 201.57136536 397.84228516 C201.58244576 399.23133057 201.58244576 399.23133057 201.59375 400.6484375 C201.60182175 401.61313965 201.60989349 402.5778418 201.61820984 403.57177734 C201.63203378 405.61603001 201.64276348 407.66030559 201.65063477 409.70458984 C201.66211185 411.77790169 201.68249522 413.851185 201.7121582 415.92431641 C202.10361927 443.30034764 202.10361927 443.30034764 192.26953125 454.87109375 C184.38194297 462.96794458 174.71823514 467.85636337 163.375 468.07421875 C160.97272346 468.1047956 158.57036366 468.12929999 156.16796875 468.1484375 C154.97365234 468.17744141 153.77933594 468.20644531 152.54882812 468.23632812 C143.01390101 468.3045472 135.37346037 466.65341508 128.35546875 459.8359375 C124.46460014 454.72222447 122.35546875 450.30230208 122.35546875 443.8359375 C64.60546875 443.8359375 6.85546875 443.8359375 -52.64453125 443.8359375 C-52.64453125 449.1159375 -52.64453125 454.3959375 -52.64453125 459.8359375 C-55.00516613 466.82341673 -59.09762435 471.51680001 -65.71983337 474.8944397 C-69.59258417 476.14112791 -73.29325498 476.13098052 -77.31860352 476.12646484 C-78.18097626 476.13318207 -79.043349 476.13989929 -79.93185425 476.14682007 C-82.77494098 476.16577788 -85.61779155 476.16972258 -88.4609375 476.171875 C-90.43961178 476.17830247 -92.41828511 476.18503079 -94.3969574 476.19204712 C-98.54029546 476.20401288 -102.68355017 476.20772846 -106.8269043 476.20654297 C-112.13901898 476.20633936 -117.45060117 476.23368782 -122.76258945 476.26808739 C-126.84692346 476.29030515 -130.93112802 476.29438215 -135.01551628 476.29332352 C-136.97436299 476.29568542 -138.93321296 476.304542 -140.8920002 476.31998825 C-143.62833378 476.3395527 -146.36350175 476.33384897 -149.09985352 476.32177734 C-149.90983292 476.33301636 -150.71981232 476.34425537 -151.55433655 476.35583496 C-155.14016821 476.31557241 -157.23956647 476.13044537 -160.17857361 473.99307251 C-161.64453125 471.8359375 -161.64453125 471.8359375 -161.64453125 468.8359375 C-167.91453125 468.8359375 -174.18453125 468.8359375 -180.64453125 468.8359375 C-180.97453125 470.4859375 -181.30453125 472.1359375 -181.64453125 473.8359375 C-184.97642087 476.05719724 -186.05194683 476.09179102 -189.9387207 476.1105957 C-191.02026932 476.12012772 -192.10181793 476.12965973 -193.21614075 476.13948059 C-194.38489243 476.13856918 -195.5536441 476.13765778 -196.7578125 476.13671875 C-198.56127388 476.14314644 -198.56127388 476.14314644 -200.40116882 476.14970398 C-202.94737111 476.15545203 -205.49358983 476.15594407 -208.03979492 476.15161133 C-211.93111338 476.1484585 -215.8216666 476.17188111 -219.71289062 476.19726562 C-222.18619696 476.1995393 -224.65950533 476.2002418 -227.1328125 476.19921875 C-228.29549149 476.2084285 -229.45817047 476.21763824 -230.65608215 476.22712708 C-238.9764699 476.17962413 -244.46685503 474.68847287 -250.64453125 468.8359375 C-255.84086639 461.37274475 -255.85229975 454.891206 -255.89453125 446.0859375 C-255.91515625 445.02632813 -255.93578125 443.96671875 -255.95703125 442.875 C-255.99663054 434.89574218 -254.9897944 429.32032847 -250.45703125 422.5859375 C-245.68558014 417.92051864 -240.89511433 415.95413151 -234.375 414.7265625 C-233.48578857 414.55672852 -232.59657715 414.38689453 -231.68041992 414.21191406 C-230.67265503 414.02580566 -230.67265503 414.02580566 -229.64453125 413.8359375 C-230.06226807 413.43391113 -230.48000488 413.03188477 -230.91040039 412.61767578 C-246.1740766 397.85317043 -246.1740766 397.85317043 -251.64453125 388.8359375 C-252.19625 387.959375 -252.74796875 387.0828125 -253.31640625 386.1796875 C-255.80734777 382.14673456 -257.9687577 378.28106453 -259.64453125 373.8359375 C-260.23355225 373.81611816 -260.82257324 373.79629883 -261.42944336 373.77587891 C-264.14735476 373.67950473 -266.86461228 373.57029038 -269.58203125 373.4609375 C-270.50822266 373.43 -271.43441406 373.3990625 -272.38867188 373.3671875 C-282.08138813 372.95907313 -290.36675302 372.14711939 -297.49609375 364.97265625 C-304.05983868 357.80115716 -305.21920663 352.19164276 -304.953125 342.50390625 C-304.32188631 335.00095522 -300.90402702 330.37409165 -295.50390625 325.30859375 C-288.79883384 319.99806371 -280.77252356 319.68212888 -272.52783203 319.72241211 C-271.34145897 319.72219307 -271.34145897 319.72219307 -270.13111877 319.7219696 C-267.53399856 319.72266261 -264.93695134 319.73042621 -262.33984375 319.73828125 C-260.53237955 319.7401476 -258.72491484 319.74157048 -256.91744995 319.74256897 C-252.17295929 319.74637701 -247.42849951 319.75619262 -242.684021 319.76727295 C-237.83752866 319.77752395 -232.99103131 319.78207448 -228.14453125 319.78710938 C-218.64451772 319.79781648 -209.14452706 319.81487225 -199.64453125 319.8359375 C-199.33837891 318.89516357 -199.03222656 317.95438965 -198.71679688 316.98510742 C-193.36234339 301.25944816 -180.27199148 290.16164813 -165.84326172 282.93359375 C-150.62745243 275.75375006 -134.29454222 273.4718555 -117.6784668 272.05004883 C-109.23028608 271.23676874 -102.41398889 269.56697141 -96.64453125 262.8359375 C-98.12817853 259.23508545 -100.11194125 257.37430453 -103.08203125 254.8984375 C-117.84793668 241.85841712 -129.18707564 225.56439412 -132.64453125 205.8359375 C-132.72421606 204.19750053 -132.75665885 202.55627935 -132.74891663 200.91592407 C-132.74625793 199.46934669 -132.74625793 199.46934669 -132.74354553 197.99354553 C-132.73332619 196.42400368 -132.73332619 196.42400368 -132.72290039 194.82275391 C-132.71678607 192.520315 -132.71085913 190.21787559 -132.70509338 187.91543579 C-132.69808505 186.08803297 -132.69808505 186.08803297 -132.69093513 184.22371292 C-132.67176 177.76891985 -132.68696491 171.3141766 -132.69726562 164.859375 C-132.71005206 156.64694816 -132.7120362 148.43499931 -132.66870117 140.22265625 C-132.633786 133.58361339 -132.64072287 126.94542925 -132.67226982 120.30631638 C-132.67719738 117.77778247 -132.66789588 115.24917907 -132.64406013 112.72075272 C-132.61265368 109.18197231 -132.63082617 105.64663334 -132.66040039 102.10791016 C-132.63941788 101.06559738 -132.61843536 100.02328461 -132.59681702 98.9493866 C-132.69296876 93.37713156 -132.69296876 93.37713156 -135.42007256 88.67855453 C-137.52830351 86.78726211 -137.52830351 86.78726211 -139.73152828 85.2306881 C-142.19862788 83.4319514 -143.53196443 81.41752303 -145.01953125 78.7734375 C-145.71175781 77.58041016 -145.71175781 77.58041016 -146.41796875 76.36328125 C-150.44681293 68.06180933 -151.10282662 58.95083512 -148.95703125 49.953125 C-143.93875388 36.612871 -135.35569155 28.33943412 -122.76953125 22.09765625 C-116.4439918 19.5437197 -111.3870364 18.72859763 -104.58203125 18.7734375 C-102.64457031 18.78310547 -102.64457031 18.78310547 -100.66796875 18.79296875 C-98.65188763 18.807208 -96.64088951 18.836067 -94.62597656 18.90771484 C-86.26750944 19.31521066 -86.26750944 19.31521066 -79.09057617 15.69238281 C-76.97984231 13.10538327 -76.97984231 13.10538327 -75.32495117 10.40332031 C-68.88737187 0.56784392 -55.95953909 -5.18357503 -44.8671875 -7.78466797 C-29.36376062 -10.43101302 -13.33218202 -8.56913493 0 0 Z " fill="#010101" transform="translate(304.64453125,22.1640625)"/>
<path d="M0 0 C5.85690135 4.17019655 9.27859912 9.81399888 12 16.375 C12.9088563 19.47676976 12.9088563 19.47676976 15.25 20.375 C17.81837683 20.4835177 20.36442555 20.53637463 22.93359375 20.55078125 C24.51759095 20.57401121 26.10157532 20.59812975 27.68554688 20.62304688 C30.17350447 20.65790314 32.66099993 20.68735545 35.14916992 20.70092773 C47.83954132 20.78363847 60.29650134 21.36273165 69.8359375 30.97265625 C74.54248337 36.19577423 77.8574152 40.95497545 77.53515625 48.296875 C76.548584 55.48668919 73.23096915 61.33023334 67.40625 65.78515625 C65.69286546 66.98944087 63.9718966 68.18291774 62.25 69.375 C61.05177128 71.77145744 61.09372685 73.33162027 61.04467773 76.00830078 C61.02473251 76.96914581 61.00478729 77.92999084 60.98423767 78.91995239 C60.96752518 79.95957123 60.95081268 80.99919006 60.93359375 82.0703125 C60.9024221 83.66418289 60.9024221 83.66418289 60.87062073 85.29025269 C60.80509739 88.69343438 60.74622727 92.09669489 60.6875 95.5 C60.64431743 97.80339366 60.60070323 100.10677926 60.55664062 102.41015625 C60.44941318 108.06502021 60.34765198 113.71996303 60.25 119.375 C59.47174866 119.24269989 58.69349731 119.11039978 57.8916626 118.97409058 C50.0673479 117.6481208 42.228941 116.44868618 34.375 115.3125 C33.21097656 115.13912109 32.04695312 114.96574219 30.84765625 114.78710938 C20.13975534 113.23962203 9.38485206 112.27583418 -1.4375 112.125 C-2.57574219 112.09921875 -3.71398437 112.0734375 -4.88671875 112.046875 C-7.73875257 112.13956445 -7.73875257 112.13956445 -9.6171875 113.70703125 C-11.41434443 116.3531899 -11.19399452 118.26703837 -10.75 121.375 C-8.45606839 124.51778735 -7.11398797 125.29877376 -3.26660156 126.10449219 C-1.8928265 126.22880947 -0.51718466 126.33357874 0.859375 126.421875 C1.58618469 126.48280334 2.31299438 126.54373169 3.06182861 126.60650635 C5.37356288 126.79637994 7.68630019 126.96100673 10 127.125 C11.57174734 127.24963908 13.14336519 127.37592289 14.71484375 127.50390625 C18.55865634 127.81334512 22.40356474 128.10016416 26.25 128.375 C26.43900879 129.39327881 26.62801758 130.41155762 26.82275391 131.46069336 C27.08202739 132.81630653 27.34164875 134.1718532 27.6015625 135.52734375 C27.72474854 136.19616577 27.84793457 136.86498779 27.97485352 137.55407715 C30.3045938 149.57392015 36.42012997 157.88525374 46.46875 164.6953125 C50.8734818 167.35547356 55.49921916 169.4150771 60.25 171.375 C61.6170179 192.24480659 54.28166028 209.94810513 40.72875977 225.68359375 C25.1654827 242.86557796 1.46853494 256.20035336 -21.75 258.375 C-22.93722656 258.51615234 -22.93722656 258.51615234 -24.1484375 258.66015625 C-45.59942709 260.0498383 -68.13319783 243.86027972 -83.5 230.5625 C-93.15594722 221.46116536 -99.80097192 211.68069145 -104.75 199.375 C-105.1109375 198.55 -105.471875 197.725 -105.84375 196.875 C-107.91803781 191.15282673 -107.87860323 185.50013918 -107.8125 179.5 C-107.80798828 178.71625 -107.80347656 177.9325 -107.79882812 177.125 C-107.78714093 175.20829986 -107.76920908 173.29163952 -107.75 171.375 C-106.615625 170.818125 -105.48125 170.26125 -104.3125 169.6875 C-91.02742709 163.02433912 -82.39828429 156.62360438 -76.44238281 142.54882812 C-74.9788346 137.95382343 -74.40876938 133.14052392 -73.75 128.375 C-72.68040039 128.30506836 -71.61080078 128.23513672 -70.50878906 128.16308594 C-66.53404644 127.89831422 -62.56137296 127.6092969 -58.58886719 127.31298828 C-56.87058422 127.1882167 -55.15181263 127.06999203 -53.43261719 126.95849609 C-50.95870315 126.79690518 -48.48751303 126.61170164 -46.015625 126.421875 C-45.24881409 126.3768988 -44.48200317 126.33192261 -43.69195557 126.2855835 C-40.22036296 125.99761863 -38.0729224 125.61811028 -35.26074219 123.50097656 C-33.20622585 120.60977937 -33.233281 118.844399 -33.75 115.375 C-35.26439236 113.40959217 -36.17075286 112.5002815 -38.61816406 111.97094727 C-41.08060353 111.93707333 -43.53724495 111.91049466 -46 111.9375 C-47.42614624 111.94559692 -47.42614624 111.94559692 -48.88110352 111.95385742 C-66.60060765 112.30968205 -84.39784001 115.13004348 -101.70532227 118.7956543 C-104.75 119.375 -104.75 119.375 -107.75 119.375 C-107.75142502 118.7847554 -107.75285004 118.1945108 -107.75431824 117.58638 C-107.77401917 111.43773041 -107.82830102 105.29007305 -107.90258789 99.1418457 C-107.92577142 96.84797283 -107.94016441 94.55399345 -107.94555664 92.26000977 C-107.9548432 88.96042484 -107.99582988 85.66251586 -108.04296875 82.36328125 C-108.0390361 81.33914627 -108.03510345 80.31501129 -108.03105164 79.25984192 C-108.13604569 73.32815195 -108.13604569 73.32815195 -111.1340332 68.30932617 C-111.99730225 67.67099854 -112.86057129 67.0326709 -113.75 66.375 C-118.54489693 62.74959013 -121.81815328 59.17054015 -123.75 53.375 C-124.45689606 46.55850229 -124.53098528 40.84400973 -120.37109375 35.1875 C-113.51405734 27.52083761 -105.45537503 21.822025 -94.91943359 21.11962891 C-93.49582845 21.10521619 -92.07211424 21.09959673 -90.6484375 21.1015625 C-89.09113844 21.08128899 -87.53384681 21.06043852 -85.9765625 21.0390625 C-83.54290433 21.01641008 -81.10954029 20.99996302 -78.67578125 20.99414062 C-76.31197256 20.98462449 -73.94945644 20.9508839 -71.5859375 20.9140625 C-70.85982269 20.91910797 -70.13370789 20.92415344 -69.3855896 20.92935181 C-65.96562647 20.86274984 -64.10005969 20.64880053 -61.36962891 18.51318359 C-59.66198587 16.31911262 -59.66198587 16.31911262 -58 13.625 C-51.28960825 3.93221192 -43.13554016 -0.61607623 -32.375 -5 C-20.83508305 -6.98964085 -10.1026797 -6.05152195 0 0 Z " fill="#E1E1E2" transform="translate(294.75,34.625)"/>
<path d="M0 0 C6.93 0.33 13.86 0.66 21 1 C21.99 2.98 22.98 4.96 24 7 C26.98104646 8.49052323 30.13646842 8.47539588 33.4140625 8.75390625 C34.14370209 8.81907944 34.87334167 8.88425262 35.62509155 8.95140076 C37.95807594 9.1589065 40.29151011 9.36076634 42.625 9.5625 C44.205762 9.7021027 45.78649166 9.84207207 47.3671875 9.98242188 C51.24442912 10.32587208 55.1220835 10.66425923 59 11 C59.18900879 12.01827881 59.37801758 13.03655762 59.57275391 14.08569336 C59.83202739 15.44130653 60.09164875 16.7968532 60.3515625 18.15234375 C60.47474854 18.82116577 60.59793457 19.48998779 60.72485352 20.17907715 C63.0545938 32.19892015 69.17012997 40.51025374 79.21875 47.3203125 C83.6234818 49.98047356 88.24921916 52.0400771 93 54 C94.3670179 74.86980659 87.03166028 92.57310513 73.47875977 108.30859375 C57.9154827 125.49057796 34.21853494 138.82535336 11 141 C10.20851563 141.09410156 9.41703125 141.18820312 8.6015625 141.28515625 C-12.84942709 142.6748383 -35.38319783 126.48527972 -50.75 113.1875 C-60.40594722 104.08616536 -67.05097192 94.30569145 -72 82 C-72.54140625 80.7625 -72.54140625 80.7625 -73.09375 79.5 C-75.16803781 73.77782673 -75.12860323 68.12513918 -75.0625 62.125 C-75.05798828 61.34125 -75.05347656 60.5575 -75.04882812 59.75 C-75.03714093 57.83329986 -75.01920908 55.91663952 -75 54 C-73.865625 53.443125 -72.73125 52.88625 -71.5625 52.3125 C-58.27742709 45.64933912 -49.64828429 39.24860438 -43.69238281 25.17382812 C-42.2288346 20.57882343 -41.65876938 15.76552392 -41 11 C-39.93040039 10.93006836 -38.86080078 10.86013672 -37.75878906 10.78808594 C-33.78404644 10.52331422 -29.81137296 10.2342969 -25.83886719 9.93798828 C-24.12058422 9.8132167 -22.40181263 9.69499203 -20.68261719 9.58349609 C-18.20870315 9.42190518 -15.73751303 9.23670164 -13.265625 9.046875 C-12.49881409 9.0018988 -11.73200317 8.95692261 -10.94195557 8.9105835 C-7.51775506 8.62654975 -5.33595583 8.24852443 -2.54589844 6.18457031 C-0.71123279 3.87177753 -0.71123279 3.87177753 0 0 Z " fill="#FDDBA5" transform="translate(262,152)"/>
<path d="M0 0 C0.72790332 0.00223072 1.45580664 0.00446144 2.20576763 0.00675976 C3.35755269 0.00441978 3.35755269 0.00441978 4.53260612 0.00203252 C7.12525782 -0.00198047 9.71785175 0.00121331 12.31050396 0.00434887 C14.16122249 0.00299497 16.01194075 0.00121509 17.8626585 -0.00096118 C22.90383465 -0.00553676 27.94499043 -0.00374545 32.98616695 -0.0005821 C38.24947193 0.00194086 43.5127751 -0.00039586 48.77608013 -0.00196826 C57.61665951 -0.00379015 66.45723054 -0.00138316 75.29780865 0.00337231 C85.53441537 0.00881497 95.77100218 0.00705232 106.00760841 0.00154591 C114.77954784 -0.00298469 123.55148126 -0.00363603 132.32342148 -0.00101542 C137.56996328 0.00054764 142.81649571 0.0007403 148.06303692 -0.00255191 C152.99428399 -0.00542986 157.92550526 -0.00345636 162.85674953 0.00234234 C164.67206943 0.00367036 166.48739148 0.00327513 168.30271053 0.00107968 C170.76993778 -0.00163022 173.23708098 0.00174731 175.70430279 0.00675976 C176.43220611 0.00452904 177.16010942 0.00229832 177.91007042 0 C182.84088535 0.01959355 182.84088535 0.01959355 183.95503521 1.13374341 C185.40778942 13.61314019 180.50989836 25.21125969 174.95503521 36.13374341 C174.47550396 37.07733716 173.99597271 38.02093091 173.50191021 38.99311841 C167.33340032 50.31203461 159.08042738 60.03422802 149.01753521 68.07124341 C148.50569683 68.48317944 147.99385845 68.89511548 147.46650982 69.31953442 C145.67772568 70.67850856 143.83350405 71.90066974 141.95503521 73.13374341 C141.10009472 73.71198361 140.24515423 74.29022381 139.36430645 74.88598645 C129.78259675 80.75223773 121.87758746 81.17131452 110.89644146 81.06343091 C109.17735405 81.06816158 107.45827125 81.07496783 105.73919964 81.08372509 C102.1559825 81.09397686 98.57399647 81.07927344 94.99092388 81.04634106 C90.43704312 81.00648749 85.8860539 81.02943908 81.33227921 81.07134831 C77.78780295 81.09685525 74.24399261 81.08849696 70.69949436 81.07045376 C69.02245444 81.06584061 67.34535062 81.07131224 65.66838551 81.08781064 C45.79608969 81.24046916 32.22822846 72.18345132 18.08003521 58.63374341 C5.49090573 45.47133845 -6.21650561 25.39560391 -6.41996479 6.75874341 C-6.22796651 0.688644 -6.16586206 0.02450125 0 0 Z " fill="#F68310" transform="translate(59.04496479034424,357.8662565946579)"/>
<path d="M0 0 C10.37884933 -0.06944885 20.75764356 -0.12278521 31.13667774 -0.15543652 C35.95586657 -0.17110592 40.77489667 -0.19236741 45.59399414 -0.22631836 C50.24294792 -0.25886641 54.89174882 -0.2768434 59.54080772 -0.28463173 C61.31627497 -0.29018344 63.09173367 -0.30102435 64.867136 -0.31719017 C67.35016722 -0.33890417 69.83256325 -0.3419695 72.31567383 -0.34057617 C73.42158371 -0.35675491 73.42158371 -0.35675491 74.54983521 -0.3732605 C79.51772151 -0.34300972 79.51772151 -0.34300972 81.92877197 1.37179565 C87.84780194 10.36837722 87.86423473 26.70014282 89.5625 37.1875 C90.01960453 39.99335147 90.47796196 42.79898793 90.93821716 45.60432434 C91.22186496 47.33485971 91.50364172 49.06570333 91.78309631 50.79692078 C92.58278378 55.69501036 93.51289066 60.53366331 94.61949158 65.37251282 C95.13665968 68.9436626 95.0548543 72.39220808 95 76 C76.73694526 76.18699474 58.47413941 76.32800982 40.21033382 76.41449738 C31.72982188 76.4557251 23.24990521 76.51191811 14.76977539 76.60351562 C7.37726822 76.68332711 -0.01480782 76.73488284 -7.40773386 76.75270796 C-11.32145375 76.76312598 -15.23394044 76.78755462 -19.14726448 76.84584045 C-22.83384791 76.90030229 -26.51869518 76.91686238 -30.2056427 76.90486145 C-32.19765927 76.90809863 -34.18948826 76.95107054 -36.18101501 76.99536133 C-44.82041929 76.91592254 -44.82041929 76.91592254 -48.28370476 74.22674561 C-50.1493988 72.06555176 -50.1493988 72.06555176 -51.62480831 69.90918732 C-53.863589 66.80107393 -56.39565053 66.02926343 -60 65 C-63.14771382 64.56386684 -66.26282916 64.40203544 -69.4375 64.3125 C-70.26443359 64.27833984 -71.09136719 64.24417969 -71.94335938 64.20898438 C-73.96178944 64.12731379 -75.98086884 64.06196276 -78 64 C-75.58828928 61.57121522 -73.17048391 59.16016892 -70.67578125 56.81640625 C-65.93439944 52.29446029 -61.71342021 47.60753628 -57.875 42.3125 C-57.44687012 41.73226074 -57.01874023 41.15202148 -56.57763672 40.55419922 C-54.34803796 37.3981031 -52.710439 34.47325588 -51.47265625 30.8046875 C-48.52008543 22.54677645 -48.52008543 22.54677645 -45 20 C-38.80803664 18.39130928 -32.49862806 18.80501789 -26.1640625 19.08203125 C-19.04486642 19.27524996 -13.2152325 17.53558986 -7.59765625 13.10546875 C-7.09105469 12.47253906 -6.58445312 11.83960938 -6.0625 11.1875 C-5.53785156 10.56230469 -5.01320313 9.93710937 -4.47265625 9.29296875 C-2.58097352 6.34756354 -1.35189183 3.22302076 0 0 Z " fill="#E5E5E5" transform="translate(295,374)"/>
<path d="M0 0 C0.91188583 -0.00004028 1.82377167 -0.00008057 2.76329041 -0.00012207 C4.68381676 0.00522115 6.60434345 0.02275247 8.5246582 0.05175781 C11.45917742 0.09366907 14.39140327 0.09281798 17.32617188 0.0859375 C19.19663048 0.0964291 21.0670773 0.10936705 22.9375 0.125 C23.81156998 0.12520142 24.68563995 0.12540283 25.5861969 0.12561035 C30.3428869 0.21778579 33.54001955 0.51972097 37.40234375 3.59375 C41.70046418 8.4888316 42.52912745 10.92569541 42.5793457 17.41088867 C42.5892025 18.46247665 42.5892025 18.46247665 42.59925842 19.53530884 C42.61900441 21.86077988 42.63065897 24.18618619 42.640625 26.51171875 C42.64470053 27.3065246 42.64877605 28.10133045 42.65297508 28.92022133 C42.67384481 33.12983567 42.68814064 37.33941736 42.69750977 41.54907227 C42.70855536 45.88908069 42.74293081 50.22857373 42.78268147 54.56840038 C42.80888472 57.91167628 42.81720503 61.25483031 42.82079124 64.59819984 C42.82565037 66.19732442 42.83724518 67.79644379 42.85582924 69.39546776 C42.88029317 71.64060031 42.87924289 73.88441243 42.87231445 76.12963867 C42.87818069 77.40489914 42.88404694 78.68015961 42.89009094 79.99406433 C42.27537291 84.53082381 40.97501856 86.81913923 38.40234375 90.59375 C33.10418321 94.58764812 28.94981406 95.19136738 22.43359375 95.125 C21.17488464 95.13074036 21.17488464 95.13074036 19.89074707 95.13659668 C18.12588289 95.13930491 16.36097783 95.13202034 14.59619141 95.11523438 C11.90956316 95.09380758 9.22560853 95.11507161 6.5390625 95.140625 C4.8164004 95.13798153 3.09373996 95.13285615 1.37109375 95.125 C0.17861023 95.13714539 0.17861023 95.13714539 -1.03796387 95.14953613 C-6.68068572 95.05563577 -10.05135957 94.02087261 -14.59765625 90.59375 C-17.97509186 85.61874724 -19.09854776 82.41187977 -19.09936523 76.28491211 C-19.10476822 75.5912706 -19.1101712 74.89762909 -19.11573792 74.18296814 C-19.12814831 71.91189644 -19.11178921 69.64211167 -19.09375 67.37109375 C-19.09390515 65.78121372 -19.0953968 64.19133332 -19.09815979 62.60145569 C-19.09954027 59.27864749 -19.08704381 55.95627279 -19.06420898 52.63354492 C-19.03580189 48.3843936 -19.03857252 44.13596062 -19.0512991 39.88675594 C-19.05826853 36.60695814 -19.05045301 33.32732506 -19.03804207 30.04754829 C-19.03354147 28.48113195 -19.03317856 26.91469784 -19.03710747 25.34827995 C-19.04003284 23.15621822 -19.02345209 20.96513153 -19.00170898 18.77319336 C-18.996306 17.5285582 -18.99090302 16.28392303 -18.9853363 15.00157166 C-18.39372244 9.80111182 -16.50192134 6.58546407 -13.01000977 2.75585938 C-8.99779019 -0.32393266 -4.88311289 -0.09180702 0 0 Z " fill="#E3E3E3" transform="translate(454.59765625,166.40625)"/>
<path d="M0 0 C0.66550891 -0.00694553 1.33101781 -0.01389106 2.01669365 -0.02104706 C4.24552511 -0.03933583 6.47329437 -0.02904854 8.7021637 -0.01878357 C10.30054013 -0.02584118 11.89890988 -0.03458553 13.49726868 -0.04489136 C17.83824748 -0.06741365 22.17886218 -0.064439 26.5198772 -0.05556989 C30.14324043 -0.05046341 33.76653504 -0.05774982 37.38989121 -0.06504196 C45.93756506 -0.08205014 54.48506044 -0.07846609 63.0327301 -0.06175232 C71.85224313 -0.04483003 80.67126125 -0.06066478 89.49072021 -0.0929752 C97.06197888 -0.11966241 104.63308341 -0.12694947 112.20438439 -0.11846012 C116.72676548 -0.11352832 121.24884877 -0.11575997 125.77119255 -0.13624763 C130.02395096 -0.15459121 134.27599702 -0.1486628 138.52871704 -0.12404823 C140.08918463 -0.11903604 141.64970637 -0.12254081 143.21013069 -0.13519669 C145.34159076 -0.15111589 147.47070168 -0.13619264 149.60205078 -0.11352539 C150.79426459 -0.11293908 151.9864784 -0.11235277 153.21481991 -0.1117487 C157.28622409 0.69797293 158.7828249 2.33780409 161.36451721 5.5146637 C162.01148987 7.83888245 162.01148987 7.83888245 162.02857971 10.2021637 C162.03502502 11.06583557 162.04147034 11.92950745 162.04811096 12.8193512 C162.02877502 13.70880432 162.00943909 14.59825745 161.98951721 15.5146637 C162.00885315 16.40411682 162.02818909 17.29356995 162.04811096 18.2099762 C162.03844299 19.50548401 162.03844299 19.50548401 162.02857971 20.8271637 C162.02294006 21.60704651 162.01730042 22.38692932 162.01148987 23.19044495 C161.01770445 26.76057219 159.23168409 28.20783628 156.36451721 30.5146637 C153.42808505 30.99244277 151.07704418 31.1679548 148.14942932 31.11061096 C146.92902199 31.11669876 146.92902199 31.11669876 145.68395996 31.12290955 C143.92319665 31.12841686 142.16236788 31.12244611 140.40167046 31.10624886 C137.61469287 31.08082208 134.82919367 31.08562784 132.04214478 31.09814453 C126.12860603 31.11888361 120.21552576 31.09920444 114.30201721 31.0771637 C107.44539043 31.05606596 100.5892387 31.05146353 93.73262215 31.07766533 C90.98693804 31.08103002 88.24215871 31.05979312 85.49658203 31.03726196 C83.8144562 31.03977289 82.13233149 31.04333259 80.45021057 31.04811096 C79.68698486 31.03522537 78.92375916 31.02233978 78.1374054 31.00906372 C74.66484344 31.04199851 72.73188611 31.23770571 69.92166138 33.35632324 C68.19642123 35.52127818 68.19642123 35.52127818 67.36451721 38.5146637 C61.09451721 38.5146637 54.82451721 38.5146637 48.36451721 38.5146637 C47.37451721 36.5346637 46.38451721 34.5546637 45.36451721 32.5146637 C42.92447119 31.29464069 41.3383066 31.38370338 38.61109924 31.37281799 C37.62312347 31.36578354 36.63514771 31.35874908 35.61723328 31.35150146 C34.5464151 31.34733719 33.47559692 31.34317291 32.37232971 31.33888245 C30.11841409 31.31568703 27.86450781 31.29156981 25.61061096 31.26661682 C22.04658239 31.23146328 18.48289748 31.2021388 14.91871643 31.18873596 C11.48616167 31.17329113 8.05461838 31.13310381 4.62232971 31.08888245 C3.55556 31.09079086 2.48879028 31.09269928 1.38969421 31.09466553 C-5.92308637 30.97337717 -5.92308637 30.97337717 -9.30589294 28.79518127 C-10.85915207 26.13102529 -11.15088332 24.52696141 -11.16673279 21.4521637 C-11.17188904 20.49052307 -11.17704529 19.52888245 -11.18235779 18.5381012 C-11.16688904 17.54036682 -11.15142029 16.54263245 -11.13548279 15.5146637 C-11.15095154 14.51692932 -11.16642029 13.51919495 -11.18235779 12.4912262 C-11.17720154 11.52958557 -11.17204529 10.56794495 -11.16673279 9.5771637 C-11.16222107 8.70189026 -11.15770935 7.82661682 -11.15306091 6.92481995 C-9.84095372 0.81485663 -5.61141209 0.01321556 0 0 Z " fill="#7F7F7F" transform="translate(75.63548278808594,452.48533630371094)"/>
<path d="M0 0 C2.36822042 0.75761099 4.73344368 1.52302829 7.09765625 2.29296875 C7.75914673 2.50369019 8.42063721 2.71441162 9.10217285 2.93151855 C23.67958625 7.70710962 34.03417531 16.37657296 41 30 C43.35270567 35.11089886 44.96172429 40.1077881 46.296875 45.56640625 C46.49476624 46.36352524 46.69265747 47.16064423 46.89654541 47.98191833 C47.30970023 49.65602749 47.71962834 51.33093598 48.12646484 53.0065918 C48.74983025 55.56180419 49.39200248 58.11181582 50.03515625 60.66210938 C50.43605212 62.29659183 50.83583023 63.93134893 51.234375 65.56640625 C51.42698914 66.32280899 51.61960327 67.07921173 51.8180542 67.85853577 C53.30736875 74.12490282 52.83732404 78.35714824 49.97558594 84.17749023 C47.51679755 89.50122974 47.39787861 94.364912 47.390625 100.16015625 C47.37408875 101.19063583 47.35755249 102.22111542 47.34051514 103.28282166 C47.29230729 106.54277671 47.27072438 109.80226621 47.25 113.0625 C47.22181762 115.28583037 47.19188705 117.50913931 47.16015625 119.73242188 C47.08329541 125.1551565 47.04252093 130.57645501 47 136 C40.07 136 33.14 136 26 136 C23.49682306 123.40589104 21.11017341 110.83485017 19.0625 98.16015625 C18.71889653 96.05669806 18.37514541 93.95326399 18.03125 91.84985352 C17.51487821 88.68880525 17.00425999 85.52737281 16.51171875 82.36251831 C16.04318339 79.35373204 15.55447323 76.34878034 15.0625 73.34375 C14.9291626 72.44966934 14.7958252 71.55558868 14.65844727 70.63441467 C13.69361351 64.88402576 11.89943293 60.2439033 9.11889648 55.11682129 C8 53 8 53 7 50 C5.11683841 48.89163577 5.11683841 48.89163577 3 48 C2.01 47.34 1.02 46.68 0 46 C-0.36076355 44.01315308 -0.36076355 44.01315308 -0.34057617 41.55029297 C-0.34034958 40.62948944 -0.34012299 39.70868591 -0.33988953 38.75997925 C-0.31666374 37.26617233 -0.31666374 37.26617233 -0.29296875 35.7421875 C-0.28872391 34.72399933 -0.28447906 33.70581116 -0.28010559 32.6567688 C-0.26327579 29.39591327 -0.22561546 26.13566959 -0.1875 22.875 C-0.17245874 20.66797766 -0.15876937 18.46094566 -0.14648438 16.25390625 C-0.1133583 10.83572777 -0.06311653 5.41790758 0 0 Z " fill="#4982C7" transform="translate(380,314)"/>
<path d="M0 0 C1.00417969 -0.03738281 2.00835937 -0.07476562 3.04296875 -0.11328125 C11.12876124 -0.20742372 17.8362504 1.55822953 23.91601562 7.13134766 C29.76501859 13.35389092 31.46833358 19.86419162 31.50390625 28.16796875 C31.51389145 28.99524979 31.52387665 29.82253082 31.53416443 30.67488098 C31.54928168 32.41870157 31.55639221 34.16260809 31.5559082 35.90649414 C31.56244112 38.53877454 31.61690315 41.16721842 31.67382812 43.79882812 C31.77423283 53.71418909 31.26880575 62.14367065 25 70.375 C22.16355624 72.84446133 19.38358086 74.73911221 16 76.375 C15.29875 76.74496094 14.5975 77.11492187 13.875 77.49609375 C9.46580409 78.8440137 5.14813439 78.78397843 0.5625 78.8125 C-0.36626953 78.84537109 -1.29503906 78.87824219 -2.25195312 78.91210938 C-6.77841692 78.94754788 -9.99349238 78.89922441 -13.59765625 75.97265625 C-17.11009799 72.17465014 -17.13286489 70.35021264 -17.17700195 65.26049805 C-17.18983719 63.97543869 -17.20267242 62.69037933 -17.21589661 61.36637878 C-17.22406418 59.95649602 -17.23150788 58.5466089 -17.23828125 57.13671875 C-17.24235678 56.4276771 -17.2464323 55.71863544 -17.25063133 54.98810768 C-17.27149266 51.23466915 -17.28579363 47.48126718 -17.29516602 43.7277832 C-17.30622617 39.85388784 -17.34062044 35.98056759 -17.38033772 32.10687542 C-17.40650477 29.12568608 -17.41485791 26.14463369 -17.41844749 23.16333961 C-17.4233139 21.73560518 -17.43492961 20.30787689 -17.45348549 18.88025475 C-17.47787217 16.87953942 -17.47449259 14.87854438 -17.4699707 12.87768555 C-17.47583694 11.740103 -17.48170319 10.60252045 -17.48774719 9.4304657 C-16.89292654 5.70424415 -15.60380877 4.05392429 -13 1.375 C-9.09183441 -0.57908279 -4.29813381 0.05887855 0 0 Z " fill="#FEDCA5" transform="translate(460,396.625)"/>
<path d="M0 0 C2.35125 1.2375 4.7025 2.475 7.125 3.75 C14.55145442 7.52584167 21.8722988 10.09247829 30 12 C31.07507813 12.29777344 32.15015625 12.59554688 33.2578125 12.90234375 C50.29765865 17.11378636 70.13559205 16.83497934 87 12 C87.6496875 11.82307617 88.299375 11.64615234 88.96875 11.46386719 C97.31844645 9.17481688 104.98131356 6.33551771 112.64453125 2.234375 C115 1 115 1 118 0 C118 12.54 118 25.08 118 38 C111.9775 38.12375 105.955 38.2475 99.75 38.375 C97.85475586 38.42962402 95.95951172 38.48424805 94.00683594 38.54052734 C92.49937487 38.55805596 90.99188537 38.57334413 89.484375 38.5859375 C88.70594238 38.6166333 87.92750977 38.6473291 87.12548828 38.67895508 C84.85058594 38.68115234 84.85058594 38.68115234 81 38 C78.64160156 35.13134766 78.64160156 35.13134766 77 32 C68.44925333 23.64358848 59.78875507 23.53997525 48.4375 23.48828125 C47.03644258 23.47140995 45.63540007 23.45325646 44.234375 23.43388367 C40.57172304 23.38664283 36.90913154 23.35666692 33.24627686 23.33044434 C29.49869855 23.30050688 25.75132811 23.25402235 22.00390625 23.20898438 C14.66935686 23.12324657 7.33483676 23.05730341 0 23 C0 15.41 0 7.82 0 0 Z " fill="#63AED7" transform="translate(212,320)"/>
<path d="M0 0 C2.72977064 -0.08126109 5.4571017 -0.14061663 8.1875 -0.1875 C8.95642578 -0.21263672 9.72535156 -0.23777344 10.51757812 -0.26367188 C15.20811056 -0.324065 18.17585339 -0.01642966 22 3 C26.29812043 7.8950816 27.1267837 10.33194541 27.17700195 16.81713867 C27.18685875 17.86872665 27.18685875 17.86872665 27.19691467 18.94155884 C27.21666066 21.26702988 27.22831522 23.59243619 27.23828125 25.91796875 C27.24235678 26.7127746 27.2464323 27.50758045 27.25063133 28.32647133 C27.27150106 32.53608567 27.28579689 36.74566736 27.29516602 40.95532227 C27.30621161 45.29533069 27.34058706 49.63482373 27.38033772 53.97465038 C27.40654097 57.31792628 27.41486128 60.66108031 27.41844749 64.00444984 C27.42330662 65.60357442 27.43490143 67.20269379 27.45348549 68.80171776 C27.47794942 71.04685031 27.47689914 73.29066243 27.4699707 75.53588867 C27.47583694 76.81114914 27.48170319 78.08640961 27.48774719 79.40031433 C26.87309567 83.9365829 25.57126007 86.22514175 23 90 C17.61193116 94.09627509 13.41917182 94.55827352 6.78515625 94.390625 C5.92941513 94.38496521 5.07367401 94.37930542 4.19200134 94.37347412 C1.48157789 94.35123507 -1.22748191 94.30106425 -3.9375 94.25 C-5.784486 94.22991878 -7.6314929 94.21167086 -9.47851562 94.1953125 C-13.9861957 94.15141147 -18.49286733 94.08247269 -23 94 C-23 93.67 -23 93.34 -23 93 C-15.08 93 -7.16 93 1 93 C1.66 91.02 2.32 89.04 3 87 C3.33 86.34 3.66 85.68 4 85 C4.10761225 82.7094983 4.14892985 80.41579849 4.16113281 78.12280273 C4.16609772 77.41520309 4.17106262 76.70760345 4.17617798 75.9785614 C4.19081735 73.63022901 4.19760715 71.28196434 4.203125 68.93359375 C4.20887828 67.29891458 4.214636 65.66423542 4.22039795 64.02955627 C4.23091523 60.59546596 4.23675205 57.16139908 4.24023438 53.72729492 C4.24569798 49.34498053 4.26967679 44.96298018 4.29820633 40.58076382 C4.31691854 37.19966255 4.32204302 33.8186353 4.32357025 30.43748665 C4.32658176 28.82328654 4.3345591 27.20908726 4.34775543 25.59493828 C4.41778501 16.3644406 4.22875223 8.45750446 0 0 Z " fill="#C0C5CA" transform="translate(470,167)"/>
<path d="M0 0 C3.43734063 -0.08703823 6.87439837 -0.14040272 10.3125 -0.1875 C11.28896484 -0.21263672 12.26542969 -0.23777344 13.27148438 -0.26367188 C14.20927734 -0.27333984 15.14707031 -0.28300781 16.11328125 -0.29296875 C16.97735596 -0.3086792 17.84143066 -0.32438965 18.73168945 -0.34057617 C21 0 21 0 22.71386719 1.18310547 C28.89719608 9.91817259 28.87719167 26.78015629 30.5625 37.1875 C31.01960453 39.99335147 31.47796196 42.79898793 31.93821716 45.60432434 C32.22186496 47.33485971 32.50364172 49.06570333 32.78309631 50.79692078 C33.58278378 55.69501036 34.51289066 60.53366331 35.61949158 65.37251282 C36.12753894 68.88068204 36 72.45523437 36 76 C28.41 76 20.82 76 13 76 C10.51460365 64.01683904 8.31893239 52.05404055 6.43505859 39.96264648 C5.17331409 31.92105331 3.65868966 23.96956216 2 16 C1.59552283 13.96002818 1.19902546 11.91844926 0.8125 9.875 C0.65394531 9.04742187 0.49539063 8.21984375 0.33203125 7.3671875 C-0.01671199 4.88085333 -0.02212295 2.50744083 0 0 Z " fill="#C0C5CA" transform="translate(354,374)"/>
<path d="M0 0 C11.71311931 4.39150102 18.99513178 14.92121411 24.359375 25.7421875 C35.9583773 52.73492742 38.14161477 87.92053492 37 117 C33.37 117 29.74 117 26 117 C25.32492764 113.64735699 24.65889172 110.29334602 24 106.9375 C23.78214844 105.83019531 23.56429688 104.72289062 23.33984375 103.58203125 C21.77562703 95.46178052 20.38139139 87.32383347 19.0625 79.16015625 C18.71889653 77.05669806 18.37514541 74.95326399 18.03125 72.84985352 C17.51487821 69.68880525 17.00425999 66.52737281 16.51171875 63.36251831 C16.04318339 60.35373204 15.55447323 57.34878034 15.0625 54.34375 C14.8624939 53.00262901 14.8624939 53.00262901 14.65844727 51.63441467 C13.69361351 45.88402576 11.89943293 41.2439033 9.11889648 36.11682129 C8 34 8 34 7 31 C5.11683841 29.89163577 5.11683841 29.89163577 3 29 C2.01 28.34 1.02 27.68 0 27 C-0.34057617 24.29443359 -0.34057617 24.29443359 -0.29296875 20.8984375 C-0.28330078 19.68671875 -0.27363281 18.475 -0.26367188 17.2265625 C-0.23853516 15.95554687 -0.21339844 14.68453125 -0.1875 13.375 C-0.17396484 12.09625 -0.16042969 10.8175 -0.14648438 9.5 C-0.11103196 6.33291718 -0.06161441 3.16666459 0 0 Z " fill="#63AED7" transform="translate(380,333)"/>
<path d="M0 0 C3.81248426 -0.02887236 7.6249407 -0.04675492 11.4375 -0.0625 C12.52611328 -0.07087891 13.61472656 -0.07925781 14.73632812 -0.08789062 C15.77080078 -0.09111328 16.80527344 -0.09433594 17.87109375 -0.09765625 C18.82943115 -0.10289307 19.78776855 -0.10812988 20.77514648 -0.11352539 C23 0 23 0 24 1 C25.45275421 13.47939678 20.55486315 25.07751628 15 36 C14.52046875 36.94359375 14.0409375 37.8871875 13.546875 38.859375 C5.88398448 52.92040711 -4.8559243 63.99497297 -18 73 C-19.0725 73.73734375 -20.145 74.4746875 -21.25 75.234375 C-29.70460211 80.414891 -36.34060653 80.84168989 -46 80 C-43.4767751 77.38665992 -40.93476663 75.13437573 -38 73 C-18.46191138 57.85717926 -4.70092355 36.44480248 0 12 C0.27180597 7.96301303 0.21551959 4.03502885 0 0 Z " fill="#F44210" transform="translate(219,358)"/>
<path d="M0 0 C3.13489128 1.17086301 6.12557708 2.53235518 9.1171875 4.0234375 C30.55638178 14.675232 49.67462555 18.20070855 72.890625 10.41796875 C81.2099764 7.48631809 89.23213093 4.20228982 97 0 C99.64 2.97 102.28 5.94 105 9 C96.5330875 21.20231508 79.83978754 25.69008319 65.875 28.25 C52.63114082 30.04360608 39.10202291 29.53380614 26 27 C24.99839844 26.81695312 23.99679688 26.63390625 22.96484375 26.4453125 C11.75898158 24.05354745 1.23130333 19.03531992 -7 11 C-5.67855892 8.20891884 -4.19617639 5.74213611 -2.375 3.25 C-1.92898437 2.63640625 -1.48296875 2.0228125 -1.0234375 1.390625 C-0.68570313 0.93171875 -0.34796875 0.4728125 0 0 Z " fill="#F6BE65" transform="translate(222,292)"/>
<path d="M0 0 C8.18346525 -0.70010634 14.1817422 0.25114325 21 5 C26.42004067 9.81400237 29.98583375 15.86937088 30.43579102 23.18432617 C30.47543224 24.72019665 30.49732458 26.25660087 30.50390625 27.79296875 C30.51389145 28.62024979 30.52387665 29.44753082 30.53416443 30.29988098 C30.54928168 32.04370157 30.55639221 33.78760809 30.5559082 35.53149414 C30.56244112 38.16377454 30.61690315 40.79221842 30.67382812 43.42382812 C30.77423283 53.33918909 30.26880575 61.76867065 24 70 C18.48646069 74.80019111 12.35951409 78.2866198 4.91796875 78.1953125 C3.98662109 78.18886719 3.05527344 78.18242187 2.09570312 78.17578125 C0.65614258 78.15064453 0.65614258 78.15064453 -0.8125 78.125 C-1.79154297 78.11597656 -2.77058594 78.10695313 -3.77929688 78.09765625 C-6.18645061 78.07417182 -8.59309743 78.0413284 -11 78 C-11 77.67 -11 77.34 -11 77 C-10.20335937 77.020625 -9.40671875 77.04125 -8.5859375 77.0625 C-2.39634159 77.05153962 -2.39634159 77.05153962 3.02734375 74.46875 C8.78086686 67.09018601 10.46727112 58.51408557 10.50390625 49.35546875 C10.51389145 48.46442947 10.52387665 47.5733902 10.53416443 46.65534973 C10.54925352 44.7822428 10.5563931 42.90905632 10.5559082 41.03588867 C10.56246139 38.20418387 10.61701458 35.3760071 10.67382812 32.54492188 C10.77265857 21.68158012 9.95834838 14.31260034 4 5 C3.67 4.01 3.34 3.02 3 2 C2.01 1.67 1.02 1.34 0 1 C0 0.67 0 0.34 0 0 Z " fill="#F6BE66" transform="translate(461,397)"/>
<path d="M0 0 C3.30596639 1.30359598 6.56917749 2.67276604 9.8125 4.125 C10.60269531 4.47820312 11.39289063 4.83140625 12.20703125 5.1953125 C12.79871094 5.46085938 13.39039063 5.72640625 14 6 C15.3670179 26.86980659 8.03166028 44.57310513 -5.52124023 60.30859375 C-20.97885827 77.37392954 -44.85964047 91.04447666 -68 93 C-71.34247579 93.12346876 -74.65813168 93.13308325 -78 93 C-78 92.67 -78 92.34 -78 92 C-76.92685547 91.88785156 -76.92685547 91.88785156 -75.83203125 91.7734375 C-67.35672802 90.65509218 -60.56361909 87.89896597 -53 84 C-52.07316406 83.54625 -51.14632813 83.0925 -50.19140625 82.625 C-28.86183186 71.72803311 -11.03174685 52.86156615 -3.125 30.0625 C-1.02331288 23.37168593 -0.7400605 16.57893155 -0.4375 9.625 C-0.37272461 8.23474609 -0.37272461 8.23474609 -0.30664062 6.81640625 C-0.20123814 4.54439706 -0.09911394 2.27229075 0 0 Z " fill="#F7BF67" transform="translate(341,200)"/>
<path d="M0 0 C2.86664749 2.43665037 3.7810249 4.1240996 4.6875 7.75 C3.76983682 12.08804413 1.48310432 14.42326669 -1.46875 17.65625 C-3.48049774 20.73545573 -3.46624303 22.36964165 -3 26 C-1.75983411 29.34149863 -1.75983411 29.34149863 -0.0625 32.625 C3.39564463 39.63939266 5.45252199 45.69621972 3.31640625 53.49609375 C1.11854379 59.48777688 -2.0346113 66.01730565 -8 69 C-14.19296117 69.57342233 -14.19296117 69.57342233 -17.375 67.3125 C-19.23688689 64.66289173 -19.92278899 63.24286253 -20 60 C-18.79773421 56.99433553 -17.71980279 54.69211806 -15.375 52.4375 C-13.33230267 50.30195279 -13.20261522 48.96374419 -13 46 C-13.89757033 43.19868753 -15.18187599 40.59369612 -16.4375 37.9375 C-19.97746646 29.86011319 -21.9734371 22.98063472 -19.10546875 14.2890625 C-15.26861134 5.74275134 -10.14623305 -1.99598027 0 0 Z " fill="#000000" transform="translate(131,192)"/>
<path d="M0 0 C2.66103532 2.23183607 2.95686561 3.78001459 3.625 7.1875 C2.94471146 11.33726011 2.0881645 12.39433122 -0.5625 15.5 C-3.50075879 18.95376349 -3.50075879 18.95376349 -4.25 23.375 C-2.81277205 27.54296107 -1.08457917 31.48605386 0.84375 35.44921875 C3.65846054 41.65869842 4.03944453 48.4633188 2 55 C-0.19057476 60.15978983 -3.81264283 64.33009191 -8 68 C-11.1875 69.25 -11.1875 69.25 -14 69 C-16.32731556 67.86220128 -18.16840714 66.83159286 -20 65 C-20.68879766 59.48961875 -20.23967674 56.88491731 -16.9375 52.375 C-14.50288714 49.08350539 -14.50288714 49.08350539 -13.8125 45.125 C-15.31861552 41.1615381 -17.02220308 37.3167069 -18.84375 33.48828125 C-21.71097381 27.31793811 -22.29576575 20.76363496 -20.05859375 14.265625 C-17.33082949 8.62197481 -14.15847291 3.42149589 -9.125 -0.4375 C-5.80197473 -1.31712433 -3.30080822 -0.84020573 0 0 Z " fill="#000000" transform="translate(90,233)"/>
<path d="M0 0 C14 0 14 0 20 1 C20 16.84 20 32.68 20 49 C13.4 49 6.8 49 0 49 C0 32.83 0 16.66 0 0 Z " fill="#E5E5E5" transform="translate(345,310)"/>
<path d="M0 0 C0 9.57 0 19.14 0 29 C-13.2 29 -26.4 29 -40 29 C-35.23676762 17.09191905 -25.98247465 9.47928144 -14.35742188 4.28759766 C-4.24581525 0 -4.24581525 0 0 0 Z " fill="#62ADD5" transform="translate(162,314)"/>
<path d="M0 0 C4.7953125 -0.1546875 4.7953125 -0.1546875 9.6875 -0.3125 C11.18543091 -0.38078003 11.18543091 -0.38078003 12.71362305 -0.45043945 C16.97877815 -0.51704893 19.39954875 -0.36631303 23.10546875 1.89453125 C25.7919791 6.29819255 25.73511919 9.93451749 25.625 15 C25.64433594 15.88945312 25.66367188 16.77890625 25.68359375 17.6953125 C25.67714844 18.55898438 25.67070312 19.42265625 25.6640625 20.3125 C25.65842285 21.09238281 25.6527832 21.87226563 25.64697266 22.67578125 C24.65430363 26.24189789 22.86108268 27.69394796 20 30 C17.09794867 30.46978417 14.79578211 30.63702648 11.9050293 30.56762695 C10.70424492 30.56872215 10.70424492 30.56872215 9.47920227 30.56983948 C6.84350903 30.56636685 4.20960171 30.52752334 1.57421875 30.48828125 C-0.25708552 30.47895192 -2.08840229 30.47183637 -3.91972351 30.46684265 C-8.73197077 30.44778226 -13.54345948 30.39868984 -18.35540771 30.34332275 C-23.26873514 30.29210951 -28.18218553 30.26932418 -33.09570312 30.24414062 C-42.73080142 30.19057009 -52.36533755 30.10526894 -62 30 C-62 29.67 -62 29.34 -62 29 C-41.54 29 -21.08 29 0 29 C0 19.43 0 9.86 0 0 Z " fill="#656565" transform="translate(212,453)"/>
<path d="M0 0 C2.66854762 1.98920961 4.67048913 3.58180116 5.44869995 6.93118286 C5.61181908 9.26219711 5.61459922 11.54283287 5.55859375 13.87890625 C5.55626236 14.72799057 5.55393097 15.57707489 5.55152893 16.45188904 C5.54181196 18.2413848 5.52007194 20.03085073 5.48706055 21.82006836 C5.43760045 24.55694171 5.42557487 27.29201663 5.41992188 30.02929688 C5.40583663 31.77085243 5.38963248 33.51239241 5.37109375 35.25390625 C5.36573105 36.07065323 5.36036835 36.88740021 5.35484314 37.72889709 C5.20246353 45.01427412 5.20246353 45.01427412 3 48 C0 50 0 50 -3.5 49.8125 C-7.01714191 48.99602063 -7.90130132 48.74284572 -10 46 C-10.38768005 44.07167053 -10.38768005 44.07167053 -10.40405273 41.86743164 C-10.41673691 41.03969742 -10.42942108 40.2119632 -10.44248962 39.35914612 C-10.43808617 38.02314613 -10.43808617 38.02314613 -10.43359375 36.66015625 C-10.4388356 35.7416539 -10.44407745 34.82315155 -10.44947815 33.8768158 C-10.45590159 31.9342449 -10.45455719 29.99163513 -10.44604492 28.04907227 C-10.43754129 25.07693141 -10.46628106 22.1067162 -10.49804688 19.13476562 C-10.49965913 17.24739641 -10.49908089 15.36002379 -10.49609375 13.47265625 C-10.50732773 12.58401382 -10.51856171 11.6953714 -10.53013611 10.77980042 C-10.46079057 4.63775071 -10.46079057 4.63775071 -8.15258789 1.44311523 C-5.15605238 -0.56579045 -3.53835687 -0.64990228 0 0 Z " fill="#050505" transform="translate(324,78)"/>
<path d="M0 0 C3.32410202 0.98491912 4.32713519 1.370228 6.375 4 C6.76940918 5.88363647 6.76940918 5.88363647 6.79492188 8.02490234 C6.81083374 8.82938812 6.82674561 9.6338739 6.84313965 10.46273804 C6.84334106 11.32839386 6.84354248 12.19404968 6.84375 13.0859375 C6.85136353 13.97987213 6.85897705 14.87380676 6.86682129 15.79483032 C6.87762683 17.68610848 6.88047355 19.57744632 6.87597656 21.46875 C6.87500578 24.35778889 6.91658764 27.24415831 6.9609375 30.1328125 C6.96614576 31.97134863 6.96883267 33.80989399 6.96875 35.6484375 C6.9933429 36.94084854 6.9933429 36.94084854 7.01843262 38.2593689 C6.96818501 42.63749066 6.77239625 44.47083817 4.06445312 48.07666016 C1.375 50 1.375 50 -2.25 50.125 C-5.625 49 -5.625 49 -7.30664062 46.98242188 C-9.08174789 42.96673478 -9.09267143 39.50223586 -9.09375 35.15625 C-9.10136353 34.30953735 -9.10897705 33.46282471 -9.11682129 32.5904541 C-9.12759761 30.80528708 -9.13048544 29.02005714 -9.12597656 27.23486328 C-9.12500299 24.50837024 -9.16667484 21.78468169 -9.2109375 19.05859375 C-9.21614408 17.32031835 -9.2188327 15.5820332 -9.21875 13.84375 C-9.23514526 13.03216431 -9.25154053 12.22057861 -9.26843262 11.38439941 C-9.21661598 7.12848173 -8.96872146 5.45413072 -6.31445312 1.94726562 C-3.625 0 -3.625 0 0 0 Z " fill="#020202" transform="translate(219.625,78)"/>
<path d="M0 0 C2.00120631 1.54771708 2.88433665 2.42468787 3.38768005 4.92832947 C3.39308304 5.6557283 3.39848602 6.38312714 3.40405273 7.13256836 C3.41673691 7.96030258 3.42942108 8.7880368 3.44248962 9.64085388 C3.43955399 10.53152054 3.43661835 11.42218719 3.43359375 12.33984375 C3.4388356 13.2583461 3.44407745 14.17684845 3.44947815 15.1231842 C3.45590159 17.0657551 3.45455719 19.00836487 3.44604492 20.95092773 C3.43754129 23.92306859 3.46628106 26.8932838 3.49804688 29.86523438 C3.49965913 31.75260359 3.49908089 33.63997621 3.49609375 35.52734375 C3.51294472 36.86030739 3.51294472 36.86030739 3.53013611 38.22019958 C3.46079057 44.36224929 3.46079057 44.36224929 1.15258789 47.55688477 C-1.84394762 49.56579045 -3.46164313 49.64990228 -7 49 C-9.66131924 47.01068653 -11.66100507 45.41065559 -12.46243286 42.07568359 C-12.64501385 39.75482061 -12.66693304 37.48401549 -12.62890625 35.15625 C-12.63131821 34.30953735 -12.63373016 33.46282471 -12.63621521 32.5904541 C-12.63523831 30.80520939 -12.62188197 29.0199338 -12.59692383 27.23486328 C-12.5626056 24.5083892 -12.57627335 21.78515688 -12.59570312 19.05859375 C-12.58880433 17.32029876 -12.57913165 15.5820121 -12.56640625 13.84375 C-12.57136612 13.03216431 -12.57632599 12.22057861 -12.58143616 11.38439941 C-12.47707959 6.34794225 -11.79354826 3.64861424 -8 0 C-5.06317146 -1.46841427 -3.13175678 -0.76696084 0 0 Z " fill="#060606" transform="translate(274,63)"/>
<path d="M0 0 C0 10.89 0 21.78 0 33 C-6.6 33 -13.2 33 -20 33 C-20 22.44 -20 11.88 -20 1 C-15 0 -15 0 0 0 Z " fill="#DDDDDD" transform="translate(197,310)"/>
<path d="M0 0 C2.80933965 1.74235813 4.4482427 3.22851665 5.93359375 6.19921875 C6.01514101 10.19503467 5.43864696 11.66610703 2.68359375 14.57421875 C-0.3619917 16.37388288 -1.61004875 16.80408131 -5.06640625 16.19921875 C-6.11828125 15.45671875 -6.11828125 15.45671875 -7.19140625 14.69921875 C-11.65421202 12.37079835 -16.12953175 12.60828983 -21.06640625 13.19921875 C-22.75632604 14.15940045 -24.42849913 15.15277809 -26.06640625 16.19921875 C-29.84295487 16.13410584 -32.11557531 16.02736183 -35.00390625 13.51171875 C-36.47086198 10.31893274 -36.76273471 8.68086107 -36.06640625 5.19921875 C-27.39326617 -5.05306448 -11.58043124 -5.56563727 0 0 Z " fill="#060503" transform="translate(315.06640625,188.80078125)"/>
<path d="M0 0 C2.47113446 2.68981892 2.96992669 3.7894868 3.5 7.5 C3 11 3 11 0.8125 13.4375 C-2.26196563 15.14553646 -3.5624388 15.60157321 -7 15 C-7.75152344 14.50371094 -8.50304687 14.00742188 -9.27734375 13.49609375 C-12.4558308 11.74952196 -14.45987518 11.59767288 -18.0625 11.625 C-19.59583984 11.61339844 -19.59583984 11.61339844 -21.16015625 11.6015625 C-24.35166464 12.04933947 -25.52679508 13.03813281 -28 15 C-31.42335626 14.87988224 -33.95416069 14.60726153 -36.9375 12.875 C-38.69937187 9.76581435 -38.48159369 7.49155423 -38 4 C-29.45040898 -7.3994547 -11.48209309 -6.69100389 0 0 Z " fill="#050403" transform="translate(256,190)"/>
<path d="M0 0 C0.75410156 0.00451172 1.50820313 0.00902344 2.28515625 0.01367188 C4.14847127 0.02546501 6.01174555 0.04340058 7.875 0.0625 C7.93558594 1.15949219 7.99617188 2.25648438 8.05859375 3.38671875 C8.14304498 4.84115654 8.22769066 6.29558305 8.3125 7.75 C8.35181641 8.47123047 8.39113281 9.19246094 8.43164062 9.93554688 C8.65685678 13.72957282 9.00339305 17.34901492 9.875 21.0625 C6.99840174 21.1981886 4.12826537 21.29690753 1.25 21.375 C0.44175781 21.41689453 -0.36648437 21.45878906 -1.19921875 21.50195312 C-5.37971997 21.58692266 -8.25992834 21.43883098 -11.63671875 18.8203125 C-14.69708898 15.4284422 -15.20185988 13.69604472 -15.4375 9.28515625 C-14.88971499 5.38903534 -12.96398983 3.70342077 -10.125 1.0625 C-6.93675432 -0.53162284 -3.49603338 -0.03924735 0 0 Z " fill="#F4BD64" transform="translate(30.125,357.9375)"/>
<path d="M0 0 C3.526875 -0.12375 3.526875 -0.12375 7.125 -0.25 C7.85348145 -0.28641602 8.58196289 -0.32283203 9.33251953 -0.36035156 C14.39640557 -0.44550506 17.11056905 0.8592114 21 4 C23.10857453 6.65863745 23.00023614 7.98701207 22.9375 11.4375 C21.82940237 15.64827101 20.31363542 17.25210722 17 20 C13.69428083 21.65285959 10.004622 21.1005118 6.375 21.0625 C3.61125 21.041875 0.8475 21.02125 -2 21 C-1.01 10.605 -1.01 10.605 0 0 Z " fill="#F6BE65" transform="translate(258,358)"/>
<path d="M0 0 C3.26008643 3.16952847 6.22237877 6.39937989 9 10 C-2.67178991 21.36826818 -2.67178991 21.36826818 -9 22 C-12.53746483 20.59868543 -15.17149603 18.51171152 -18 16 C-18.845625 15.2575 -19.69125 14.515 -20.5625 13.75 C-22 12 -22 12 -22 10 C-20.99839844 9.61328125 -19.99679687 9.2265625 -18.96484375 8.828125 C-17.6222845 8.30236753 -16.27984284 7.77630973 -14.9375 7.25 C-14.28072266 6.99734375 -13.62394531 6.7446875 -12.94726562 6.484375 C-8.36987884 4.68047873 -4.22316717 2.52621183 0 0 Z " fill="#E7A539" transform="translate(318,292)"/>
<path d="M0 0 C14 0 14 0 20 1 C20 16.84 20 32.68 20 49 C13.4 49 6.8 49 0 49 C0 32.83 0 16.66 0 0 Z M1 11 C1 23.21 1 35.42 1 48 C6.94 48 12.88 48 19 48 C19 37.11 19 26.22 19 15 C10.09175752 12.25464401 10.09175752 12.25464401 1 11 Z " fill="#AFB3B7" transform="translate(345,310)"/>
<path d="M0 0 C6.53732214 0.63264408 12.45924129 1.69184826 19 3 C19 9.93 19 16.86 19 24 C12.06213152 21.22485261 6.21117783 16.90472625 2.46484375 10.2890625 C1.00360996 6.71715768 0 3.87762679 0 0 Z " fill="#626262" transform="translate(336,166)"/>
<path d="M0 0 C-2.06901877 8.85685227 -5.32358712 15.44203615 -12.6875 21 C-16 23 -16 23 -19 23 C-19 16.4 -19 9.8 -19 3 C-4.66964286 -0.21428571 -4.66964286 -0.21428571 0 0 Z " fill="#797979" transform="translate(206,166)"/>
<path d="M0 0 C2.97 0.495 2.97 0.495 6 1 C6 4.63 6 8.26 6 12 C3 11 3 11 2.05078125 9.2578125 C1.80714844 8.55398437 1.56351562 7.85015625 1.3125 7.125 C1.06113281 6.42632812 0.80976563 5.72765625 0.55078125 5.0078125 C0 3 0 3 0 0 Z " fill="#777777" transform="translate(336,166)"/>
</svg>
