<?xml version="1.0" encoding="UTF-8"?>
<svg version="1.1" xmlns="http://www.w3.org/2000/svg" width="512" height="512">
<path d="M0 0 C1.50385254 0.01135986 1.50385254 0.01135986 3.03808594 0.02294922 C20.92728092 0.41811525 36.42491915 7.76590324 48.84375 20.6796875 C59.56695871 33.25883618 65.30130381 48.25579923 65.125 64.75 C65.11364014 66.25385254 65.11364014 66.25385254 65.10205078 67.78808594 C64.67288509 87.21644792 55.8934555 102.53525001 42.19914246 115.98468018 C40.556607 117.55202588 38.90813914 119.11317171 37.25463867 120.66894531 C35.37794575 122.45645855 33.50176316 124.24450771 31.62602234 126.03302002 C31.13848996 126.49628394 30.65095757 126.95954785 30.14865148 127.43685007 C26.55155086 130.85550932 22.97750059 134.29706738 19.41584778 137.75262451 C18.89509066 138.25784299 18.37433355 138.76306147 17.83779591 139.2835896 C15.69642736 141.36199244 13.5558439 143.44120155 11.41577375 145.52094126 C5.37208646 151.39269174 -0.69154319 157.23982441 -6.82250977 163.02050781 C-11.71842222 167.63699079 -16.56393464 172.30024827 -21.35727328 177.02322459 C-23.88784983 179.51312495 -26.43620321 181.97388206 -29.04764748 184.37906647 C-40.04147806 193.74552189 -40.04147806 193.74552189 -45.63808823 206.38285828 C-45.19120011 212.31762903 -43.37466086 217.53839179 -41.15944481 223.01979828 C-39.85309785 226.74891645 -39.61482096 230.3889066 -39.5 234.3125 C-39.4071875 237.344375 -39.4071875 237.344375 -39.3125 240.4375 C-34.0325 240.4375 -28.7525 240.4375 -23.3125 240.4375 C-23.209375 242.891875 -23.10625 245.34625 -23 247.875 C-22.46344226 258.90053991 -22.46344226 258.90053991 -16.75 267.9375 C-11.92800753 270.90487998 -7.92830569 271.28111146 -2.3125 270.4375 C4.38799665 267.20447952 9.61024082 260.72631165 14.6875 255.4375 C19.52048806 259.46498053 24.06860004 263.68129413 28.49609375 268.1484375 C29.10767838 268.76143707 29.719263 269.37443665 30.34938049 270.00601196 C32.27697559 271.93914564 34.20103928 273.87574987 36.125 275.8125 C37.44182404 277.13434699 38.75887926 278.45596372 40.07617188 279.77734375 C43.28262373 282.99474299 46.48591629 286.21525681 49.6875 289.4375 C48.73575315 290.55064821 47.78360873 291.6634565 46.83129883 292.77612305 C46.30111649 293.39585495 45.77093414 294.01558685 45.22468567 294.65409851 C42.63987365 297.65292793 39.97841283 300.58222314 37.32421875 303.51953125 C34.20805742 307.1711666 34.35246354 310.23527915 34.40625 314.89453125 C34.81931244 318.62930418 36.19624332 320.67691828 38.6875 323.4375 C46.26497641 329.07203374 55.46140374 327.86086898 64.6875 328.4375 C64.6875 344.2775 64.6875 360.1175 64.6875 376.4375 C59.4075 376.7675 54.1275 377.0975 48.6875 377.4375 C42.13462056 378.93418348 42.13462056 378.93418348 37.1875 383 C34.22012002 387.82199247 33.84388854 391.82169431 34.6875 397.4375 C37.92052048 404.13799665 44.39868835 409.36024082 49.6875 414.4375 C45.66001947 419.27048806 41.44370587 423.81860004 36.9765625 428.24609375 C36.36356293 428.85767838 35.75056335 429.469263 35.11898804 430.09938049 C33.18585436 432.02697559 31.24925013 433.95103928 29.3125 435.875 C27.99065301 437.19182404 26.66903628 438.50887926 25.34765625 439.82617188 C22.13025701 443.03262373 18.90974319 446.23591629 15.6875 449.4375 C14.57435179 448.48575315 13.4615435 447.53360873 12.34887695 446.58129883 C11.72914505 446.05111649 11.10941315 445.52093414 10.47090149 444.97468567 C7.47207207 442.38987365 4.54277686 439.72841283 1.60546875 437.07421875 C-2.0461666 433.95805742 -5.11027915 434.10246354 -9.76953125 434.15625 C-13.50430418 434.56931244 -15.55191828 435.94624332 -18.3125 438.4375 C-23.94703374 446.01497641 -22.73586898 455.21140374 -23.3125 464.4375 C-39.1525 464.4375 -54.9925 464.4375 -71.3125 464.4375 C-71.6425 459.1575 -71.9725 453.8775 -72.3125 448.4375 C-73.80918348 441.88462056 -73.80918348 441.88462056 -77.875 436.9375 C-82.69699247 433.97012002 -86.69669431 433.59388854 -92.3125 434.4375 C-99.01299665 437.67052048 -104.23524082 444.14868835 -109.3125 449.4375 C-110.43838014 448.48020084 -111.5631715 447.52162105 -112.6875 446.5625 C-113.31398438 446.02882813 -113.94046875 445.49515625 -114.5859375 444.9453125 C-115.87086651 443.82317993 -117.10621975 442.64378025 -118.3125 441.4375 C-118.45945312 442.30761719 -118.45945312 442.30761719 -118.609375 443.1953125 C-120.24824992 451.75702112 -124.12646482 457.47749235 -131.3125 462.4375 C-132.16199219 462.73011719 -133.01148438 463.02273438 -133.88671875 463.32421875 C-136.97015241 464.73932116 -137.4020624 465.91205027 -138.6875 469 C-144.5620688 481.60131271 -154.04735302 489.94305556 -167.12109375 494.74609375 C-179.03248864 498.50423438 -194.12517592 498.03116204 -205.3125 492.4375 C-208.47560587 490.62308038 -211.42135644 488.65718795 -214.3125 486.4375 C-215.13621094 485.82519531 -215.95992187 485.21289062 -216.80859375 484.58203125 C-221.9821885 480.15098052 -226.64383771 474.00598686 -228.8125 467.5 C-230.70425549 463.63766587 -232.37449727 463.22253991 -236.1796875 461.59375 C-241.59146636 458.65989186 -245.51206422 453.24645318 -247.3125 447.4375 C-247.97092556 441.02933495 -248.43324074 434.62083833 -245.1875 428.875 C-242.94446724 425.6694224 -242.94446724 425.6694224 -243.9375 422.75 C-244.39125 421.986875 -244.845 421.22375 -245.3125 420.4375 C-246.85452637 417.17203239 -247.50746535 414.33111405 -247.87109375 410.765625 C-247.95544678 409.95512695 -248.0397998 409.14462891 -248.12670898 408.30957031 C-248.18802002 407.69178711 -248.24933105 407.07400391 -248.3125 406.4375 C-248.85007935 407.03059464 -249.38765869 407.62368927 -249.94152832 408.23475647 C-298.09318626 461.1166104 -298.09318626 461.1166104 -330.93765259 469.4367218 C-339.98442616 471.74119851 -348.51390773 475.23857443 -357.1524353 478.74017334 C-361.43559316 480.46680216 -365.7423408 482.13225293 -370.046875 483.8046875 C-375.63403185 485.98425865 -381.20616571 488.19607732 -386.765625 490.4453125 C-409.49538321 499.52737165 -409.49538321 499.52737165 -420.75 494.9375 C-425.84620539 491.92512436 -429.45841667 486.99974999 -431.3125 481.4375 C-433.40218606 468.71013402 -427.73975368 457.54533694 -423.125 446 C-422.27126416 443.82250092 -421.41941241 441.6442623 -420.56933594 439.46533203 C-418.76960774 434.85891914 -416.95815023 430.25732438 -415.14111328 425.65771484 C-412.47901281 418.89438175 -409.89571089 412.10273797 -407.33016014 405.30243492 C-405.70330965 400.99672394 -404.06239246 396.6963449 -402.4234314 392.39523315 C-401.52159882 390.02110507 -400.6247438 387.64507979 -399.73306274 385.26712036 C-398.47891095 381.92943695 -397.20303096 378.60083228 -395.921875 375.2734375 C-395.37743996 373.80158745 -395.37743996 373.80158745 -394.82200623 372.30000305 C-392.28389688 365.79337405 -389.21833377 361.36544354 -384.3125 356.4375 C-383.28156239 355.38536373 -382.25089616 354.33296151 -381.22042847 353.28036499 C-377.38231391 349.37978146 -373.50582486 345.51819859 -369.62890625 341.65625 C-368.20379587 340.23300756 -366.77890824 338.80954206 -365.35423279 337.38586426 C-361.62632991 333.66175698 -357.89543244 329.94066416 -354.16387939 326.22021484 C-350.3476557 322.41426924 -346.53430483 318.60544755 -342.72070312 314.796875 C-335.25409322 307.34095019 -327.784313 299.88821037 -320.3125 292.4375 C-320.65834641 291.35152023 -321.00419281 290.26554047 -321.36051941 289.14665222 C-321.81755063 287.70092027 -322.27443687 286.25514248 -322.73120117 284.80932617 C-322.95877861 284.09604912 -323.18635605 283.38277206 -323.42082977 282.64788055 C-326.86252919 271.72395362 -327.61667755 261.20648249 -327.51831055 249.81762695 C-327.49988078 247.61072355 -327.49780288 245.40423861 -327.49804688 243.19726562 C-327.47616916 236.84323746 -327.25676274 230.73277083 -326.3125 224.4375 C-327.12523376 224.44638245 -327.93796753 224.45526489 -328.77532959 224.4644165 C-336.48281784 224.54499289 -344.19009817 224.60568097 -351.89789963 224.64474869 C-355.85936388 224.66550994 -359.82047639 224.69361381 -363.78173828 224.73925781 C-367.61378624 224.78313014 -371.44549864 224.80672298 -375.27777863 224.81700897 C-376.73044355 224.82432697 -378.1830928 224.83861443 -379.63561249 224.86042023 C-395.63359326 225.09075529 -407.2736967 221.06253304 -419.0625 210.125 C-429.05541038 199.56645319 -431.82689781 188.01922077 -431.73217773 173.90722656 C-431.31809181 159.6711922 -425.40510575 148.7161965 -415.12890625 138.96875 C-409.96420453 134.61485092 -404.88437586 131.94355488 -398.3125 130.4375 C-398.47258545 129.72899902 -398.6326709 129.02049805 -398.79760742 128.29052734 C-402.78738666 106.18310196 -397.96462913 84.03910327 -385.37890625 65.60546875 C-383.7467077 63.48887579 -382.06173394 61.45744872 -380.3125 59.4375 C-379.71566406 58.64472656 -379.11882812 57.85195312 -378.50390625 57.03515625 C-370.30385931 47.31495801 -359.05237258 40.89205685 -347.3125 36.4375 C-346.20132813 36.004375 -345.09015625 35.57125 -343.9453125 35.125 C-323.94815442 28.59531573 -301.57522148 31.18987672 -282.9375 40.25 C-276.86169129 43.37449545 -271.37616007 46.81249975 -266.3125 51.4375 C-265.49394531 52.17613281 -264.67539062 52.91476563 -263.83203125 53.67578125 C-257.51355652 59.66925123 -252.86517903 66.03621733 -248.3125 73.4375 C-247.54164063 73.27765625 -246.77078125 73.1178125 -245.9765625 72.953125 C-226.89575102 70.26797882 -209.46560909 72.78616751 -193.3125 83.4375 C-188.58003406 87.03229755 -183.89545454 90.69075248 -180.89355469 95.8996582 C-177.71166708 101.33479493 -177.71166708 101.33479493 -172.49414062 104.56933594 C-169.17624641 105.21306063 -165.93049879 105.59689076 -162.5625 105.875 C-160.31702373 106.11743884 -158.07220843 106.36608427 -155.828125 106.62109375 C-154.84102539 106.70931396 -153.85392578 106.79753418 -152.83691406 106.88842773 C-149.64632363 107.38549326 -146.6989746 108.10936451 -143.59222412 108.97181702 C-142.60308895 109.2453 -141.61395378 109.51878298 -140.59484482 109.80055332 C-139.46508413 110.11584193 -139.46508413 110.11584193 -138.3125 110.4375 C-137.83211336 109.95434798 -137.35172672 109.47119596 -136.85678291 108.97340298 C-125.13697272 97.18717711 -113.40874995 85.40939378 -101.67123604 73.64079952 C-95.9951336 67.94926521 -90.32185604 62.25496887 -84.65527344 56.55395508 C-79.71303716 51.58170336 -74.76544989 46.61484818 -69.81151569 41.6542502 C-67.19157794 39.03042068 -64.57429371 36.40406789 -61.96341324 33.77122307 C-59.04002993 30.82344953 -56.10475377 27.88779154 -53.16845703 24.95288086 C-52.31608963 24.08972763 -51.46372223 23.2265744 -50.58552551 22.33726501 C-36.52772821 8.35076875 -20.10071998 -0.2148533 0 0 Z M-52.6875 347.0625 C-54.79956506 350.14936432 -54.92445145 351.7657913 -54.3125 355.4375 C-52.8125 357.9375 -52.8125 357.9375 -50.3125 359.4375 C-46.6407913 360.04945145 -45.02436432 359.92456506 -41.9375 357.8125 C-39.82543494 354.72563568 -39.70054855 353.1092087 -40.3125 349.4375 C-41.8125 346.9375 -41.8125 346.9375 -44.3125 345.4375 C-47.9842087 344.82554855 -49.60063568 344.95043494 -52.6875 347.0625 Z " fill="#010101" transform="translate(439.3125,7.5625)"/>
<path d="M0 0 C6.58021859 5.03598194 14.21950715 11.34244217 17.48828125 19.1875 C16.20962735 22.96146635 13.87040143 24.66989241 10.73828125 27 C0.22293917 35.24053312 -8.82439367 47.82839362 -11.51171875 61.1875 C-11.49107792 62.58333619 -11.47024821 63.97916961 -11.44921875 65.375 C-12.51171875 69.1875 -12.51171875 69.1875 -15.0625 70.87890625 C-17.15851524 71.90004188 -19.28298946 72.86512567 -21.43359375 73.765625 C-28.93923137 77.23269619 -32.71833272 82.79370423 -35.76171875 90.25 C-36.59378501 93.50892617 -37.03605219 96.85783405 -37.51171875 100.1875 C-32.23171875 100.1875 -26.95171875 100.1875 -21.51171875 100.1875 C-21.18171875 97.8775 -20.85171875 95.5675 -20.51171875 93.1875 C-19.2421875 91.04296875 -19.2421875 91.04296875 -17.69921875 89.375 C-17.19777344 88.81167969 -16.69632812 88.24835938 -16.1796875 87.66796875 C-12.26282443 84.19140879 -8.83291117 83.79986021 -3.75390625 83.94140625 C1.13258568 84.47772853 3.85740564 86.57064385 7.30078125 89.9375 C9.48828125 93.1875 9.48828125 93.1875 10.48828125 100.1875 C15.76828125 100.1875 21.04828125 100.1875 26.48828125 100.1875 C25.03731703 91.48171471 22.89580575 83.5950245 16.48828125 77.1875 C12.34886421 74.39151815 8.24049664 71.7715718 3.48828125 70.1875 C3.31105464 58.97158719 8.60503811 49.87191923 16.11328125 41.8125 C26.76739515 31.82528483 38.90984313 27.51463324 53.34765625 27.875 C66.64003392 28.61278229 78.32536322 35.04734416 87.37890625 44.56640625 C96.58690313 56.00819496 98.9672739 66.93746868 98.48828125 81.1875 C98.55015625 82.425 98.61203125 83.6625 98.67578125 84.9375 C96.92798799 89.72093418 93.40943411 91.3749024 89.28125 94.16796875 C81.41486181 99.85597252 76.91320138 109.35626527 74.95703125 118.734375 C74.72600257 120.54409967 74.59336104 122.36611704 74.48828125 124.1875 C79.76828125 124.1875 85.04828125 124.1875 90.48828125 124.1875 C90.52953125 122.8675 90.57078125 121.5475 90.61328125 120.1875 C91.36266612 113.64834706 94.68563303 109.61998713 99.55859375 105.390625 C105.81852189 100.53975817 110.62447622 99.56636488 118.48828125 100.1875 C125.79103962 101.6321473 131.45854181 106.16203158 135.87890625 112.03515625 C139.0486777 117.47064462 139.46350957 123.03671785 138.48828125 129.1875 C136.30140149 135.9126391 132.66501107 141.56276458 126.48828125 145.1875 C120.41738414 147.85382123 115.55968725 148.62157278 108.9690094 148.57518005 C107.57783186 148.58325836 107.57783186 148.58325836 106.15854973 148.59149987 C103.06723268 148.60574689 99.9763458 148.5986837 96.88500977 148.59155273 C94.66200416 148.59725798 92.43900149 148.60422283 90.21600342 148.61235046 C84.18916324 148.63027943 78.16246869 148.62911398 72.13560987 148.62340808 C67.10077109 148.620316 62.06596028 148.62640888 57.03112549 148.63244683 C44.4733818 148.64729188 31.91570835 148.64367927 19.35796969 148.63158352 C8.46516268 148.62165163 -2.42747446 148.63459328 -13.32025527 148.65851771 C-24.52011529 148.68293023 -35.71991379 148.69211198 -46.91980416 148.68586498 C-53.20165472 148.68249562 -59.48336494 148.6849094 -65.76519585 148.70211601 C-71.67256589 148.71759108 -77.57961173 148.71362298 -83.48696899 148.69481087 C-85.65208436 148.69112666 -87.81722378 148.69422851 -89.98231697 148.70469666 C-92.94373801 148.71791938 -95.90408774 148.70634723 -98.86546326 148.68870544 C-99.71703599 148.69831045 -100.56860872 148.70791546 -101.44598669 148.71781152 C-110.59483023 148.60609378 -119.01009388 144.62068671 -125.51171875 138.1875 C-132.22750399 129.04450192 -134.59838359 120.48881429 -133.51171875 109.1875 C-132.61939327 105.86155958 -131.30140887 103.12013863 -129.51171875 100.1875 C-129.08761719 99.48882812 -128.66351563 98.79015625 -128.2265625 98.0703125 C-123.63198063 91.28722506 -116.65733355 85.81662296 -108.51171875 84.1875 C-98.15443482 83.28329267 -89.1506865 85.2519263 -80.62109375 91.31640625 C-75.41290381 95.93626363 -70.89092164 102.29148553 -69.51171875 109.1875 C-69.51171875 111.4975 -69.51171875 113.8075 -69.51171875 116.1875 C-64.23171875 116.1875 -58.95171875 116.1875 -53.51171875 116.1875 C-55.76395357 100.95179385 -59.83409895 88.06716718 -72.51171875 78.1875 C-81.11746045 72.39756603 -89.35603138 69.7862214 -99.51171875 68.1875 C-104.2408447 53.98120565 -102.3298542 37.85883048 -95.78125 24.56640625 C-86.56342846 6.97196007 -72.08262281 -4.55563604 -53.32421875 -10.75 C-34.88150893 -15.05600714 -15.2797545 -11.026137 0 0 Z " fill="#E4E7EB" transform="translate(157.51171875,67.8125)"/>
<path d="M0 0 C29.08602176 1.99052384 55.19425617 16.09721793 76 36 C76.59941406 36.54785156 77.19882812 37.09570312 77.81640625 37.66015625 C99.59525325 58.22626003 113.27063228 90.05358788 114.21875 119.80078125 C114.59962776 138.61127418 112.51885145 154.10737599 104 171 C103.47535156 172.04929687 102.95070313 173.09859375 102.41015625 174.1796875 C99.40328141 179.72292375 95.83977456 184.6249312 91.734375 189.3984375 C90.95810509 190.3019696 90.95810509 190.3019696 90.16615295 191.22375488 C83.0288389 199.40324457 75.18921317 206.90174918 67.4152832 214.46826172 C56.31165584 225.29877187 45.70156858 236.40719172 38 250 C37.64550781 250.60199219 37.29101562 251.20398438 36.92578125 251.82421875 C34.7875497 255.488623 32.9015607 259.19687859 31 263 C18.79 263 6.58 263 -6 263 C-6.02578125 259.7721875 -6.0515625 256.544375 -6.078125 253.21875 C-6.11659514 250.07445755 -6.16173947 246.93032633 -6.20751953 243.78613281 C-6.23565367 241.60977951 -6.2569056 239.43332547 -6.27099609 237.25683594 C-6.29253006 234.11861882 -6.33923506 230.98160337 -6.390625 227.84375 C-6.39185364 226.87884644 -6.39308228 225.91394287 -6.39434814 224.9197998 C-6.54982173 217.66320132 -8.17671494 212.34137242 -12.89453125 206.7578125 C-13.52746094 206.21898437 -14.16039062 205.68015625 -14.8125 205.125 C-15.43769531 204.57070313 -16.06289062 204.01640625 -16.70703125 203.4453125 C-23.97959198 198.86124526 -32.44253489 199.67118241 -40.7265625 199.69726562 C-48.26596381 199.54510323 -48.26596381 199.54510323 -52.171875 196.64453125 C-54 194 -54 194 -54.625 191 C-53.76908553 186.89161055 -52.28381037 185.5844103 -49 183 C-46.00721778 182.52238266 -43.58931925 182.34698935 -40.60473633 182.40405273 C-39.77150848 182.3999942 -38.93828064 182.39593567 -38.07980347 182.39175415 C-36.27485453 182.38624446 -34.46984178 182.3922243 -32.66495705 182.40841484 C-29.80073376 182.43387192 -26.93794736 182.42902339 -24.07365417 182.41651917 C-17.98644476 182.39577459 -11.89968003 182.41542761 -5.8125 182.4375 C1.22718671 182.45865357 8.2664082 182.4630455 15.30608559 182.43699837 C18.11464674 182.43365718 20.92230401 182.45479745 23.73075867 182.47740173 C37.76818548 182.70330211 37.76818548 182.70330211 49.88102722 176.32298279 C54.75042284 171.20640585 57.13572471 165.62014798 57.4375 158.5625 C57.17780261 150.96894824 54.67123937 146.29994628 49.1875 141.125 C43.87114912 136.41153427 37.64592351 135.75265153 30.7512207 135.72875977 C30.06412018 135.72353302 29.37701965 135.71830627 28.6690979 135.71292114 C27.19050162 135.70274871 25.71187021 135.69691265 24.23324013 135.69503975 C21.89166913 135.69135253 19.55051278 135.67456567 17.20903015 135.65428162 C10.55666804 135.59907095 3.9042481 135.56811652 -2.74829102 135.54370117 C-6.82839246 135.52782955 -10.90819274 135.49762671 -14.9881382 135.45893669 C-16.53943501 135.44729543 -18.0907856 135.44135642 -19.64212608 135.44125557 C-21.80820642 135.44106355 -23.97345342 135.42280453 -26.1394043 135.40063477 C-27.98637154 135.39302879 -27.98637154 135.39302879 -29.87065125 135.38526917 C-33.25002044 134.96921878 -34.63409772 134.40753378 -37 132 C-38.07917226 128.76248322 -38.11425601 126.42248229 -38.09765625 123.01953125 C-38.09443359 121.85615234 -38.09121094 120.69277344 -38.08789062 119.49414062 C-38.07951172 118.27919922 -38.07113281 117.06425781 -38.0625 115.8125 C-38.05573242 113.97268555 -38.05573242 113.97268555 -38.04882812 112.09570312 C-38.03703065 109.06375332 -38.02056921 106.03190094 -38 103 C-36.70489502 102.9906543 -35.40979004 102.98130859 -34.07543945 102.97167969 C-29.21263811 102.93142882 -24.35044636 102.86557674 -19.48803711 102.79248047 C-17.39436753 102.76447259 -15.30059617 102.74315905 -13.20678711 102.72900391 C3.33035333 102.61057129 17.75477669 102.01005004 30.70703125 90.48046875 C37.9471511 82.94707822 41.38209813 71.8898076 41.2109375 61.5859375 C40.3161165 50.61609485 36.34720681 40.87794483 28.375 33.1875 C20.78103244 27.04276289 11.48709392 24.49933567 2 23 C1.93941406 21.75863281 1.87882812 20.51726562 1.81640625 19.23828125 C1.73196377 17.59634423 1.64731764 15.95441768 1.5625 14.3125 C1.52318359 13.49587891 1.48386719 12.67925781 1.44335938 11.83789062 C1.23101997 7.80344189 0.95552078 3.94252691 0 0 Z " fill="#FDE8A6" transform="translate(270,129)"/>
<path d="M0 0 C28.38 0 56.76 0 86 0 C86.495 14.355 86.495 14.355 87 29 C90.01968926 36.74431116 90.01968926 36.74431116 94.9375 41.9375 C95.58589844 42.48277344 96.23429687 43.02804687 96.90234375 43.58984375 C101.5687553 46.72685412 105.51886224 47.2522045 111.09765625 47.27124023 C111.792612 47.27646698 112.48756775 47.28169373 113.20358276 47.28707886 C114.70567581 47.29728428 116.20780387 47.30309321 117.70993042 47.30496025 C120.08942041 47.30863533 122.46849787 47.32539173 124.84790039 47.34571838 C131.61043629 47.40102886 138.37303173 47.43183008 145.13574219 47.45629883 C149.27837826 47.47218844 153.42071898 47.50241776 157.5632019 47.54106331 C159.13879254 47.55269656 160.714436 47.55864351 162.29006958 47.55874443 C164.49447429 47.55893687 166.69806564 47.57722886 168.90234375 47.59936523 C170.78167603 47.60697121 170.78167603 47.60697121 172.69897461 47.61473083 C176.26130454 48.03049737 178.15689528 48.85319633 181 51 C182.40457737 53.80915474 182.24895157 55.88810534 182 59 C180.22015595 62.1359157 179.47691793 62.84102736 176 64 C173.22802269 64.09977815 170.48043693 64.14367895 167.70825195 64.1418457 C166.86235001 64.14532013 166.01644806 64.14879456 165.14491272 64.15237427 C163.30664541 64.15972842 161.46836923 64.16507562 159.63009071 64.16866493 C156.71655218 64.17583472 153.80318163 64.19150631 150.88969421 64.21000671 C142.60527891 64.26244408 134.32095456 64.31042655 126.03637695 64.32592773 C120.96879494 64.33603131 115.90163425 64.36541831 110.83421898 64.40724754 C108.90664042 64.41953083 106.97900228 64.4246837 105.05138588 64.42244911 C102.34671006 64.42008581 99.6432339 64.44234095 96.9387207 64.4699707 C95.75463623 64.46006859 95.75463623 64.46006859 94.54663086 64.44996643 C87.93099456 64.56036749 82.75162469 66.58873307 77.7578125 70.96484375 C77.21898437 71.61582031 76.68015625 72.26679688 76.125 72.9375 C75.57070312 73.58589844 75.01640625 74.23429687 74.4453125 74.90234375 C70.49831197 80.63082831 70.27628859 86.24536013 71 93 C72.78963347 100.15853388 76.9363073 104.92366282 83 109 C86.64416973 110.70578158 89.55128362 111.25640701 93.5625 111.30859375 C95.12871094 111.34629883 95.12871094 111.34629883 96.7265625 111.38476562 C98.90879475 111.41992092 101.0910934 111.45117122 103.2734375 111.47851562 C104.83964844 111.5181543 104.83964844 111.5181543 106.4375 111.55859375 C107.38496094 111.57204834 108.33242187 111.58550293 109.30859375 111.59936523 C112.49315034 112.0734089 114.40211417 113.12632639 117 115 C118.15410254 117.30820508 118.1210297 118.60784276 118.11352539 121.17431641 C118.11341209 122.46542831 118.11341209 122.46542831 118.11329651 123.78262329 C118.10813522 124.71287323 118.10297394 125.64312317 118.09765625 126.6015625 C118.0962413 127.55316254 118.09482635 128.50476257 118.09336853 129.48519897 C118.08776012 132.53183097 118.07520619 135.57839013 118.0625 138.625 C118.05748608 140.68749894 118.05292299 142.74999903 118.04882812 144.8125 C118.03863781 149.87505081 118.01906402 154.93744363 118 160 C105.79 160 93.58 160 81 160 C78.36 155.05 75.72 150.1 73 145 C62.5002712 129.50859685 49.745051 116.50888138 36.39477539 103.51123047 C24.75681975 92.15692293 14.11073285 80.82922065 7 66 C6.47535156 64.93265625 5.95070312 63.8653125 5.41015625 62.765625 C-0.55843929 49.86528647 -2.23654101 37.78505051 -2.3125 23.75 C-2.31813965 22.76854004 -2.3237793 21.78708008 -2.32958984 20.77587891 C-2.25782819 13.51092358 -1.2227261 7.33635663 0 0 Z " fill="#FEE9A6" transform="translate(130,232)"/>
<path d="M0 0 C2.35395772 2.35395772 2.75775473 4.03233411 3.75 7.1875 C6.79938593 15.76389792 11.83542719 20.99275562 20 25 C27.96498242 28.1011202 36.47188803 28.30260545 44.5 25.25 C48.09062054 23.61258347 51.09664184 21.70980095 54 19 C57.45201639 20.47721422 59.64961936 22.43794001 62.25 25.125 C62.95640625 25.84945313 63.6628125 26.57390625 64.390625 27.3203125 C65.18726563 28.15175781 65.18726563 28.15175781 66 29 C64.19752161 32.68879299 62.1723788 36.22650083 60.12109375 39.78125 C56.99533443 45.96742175 57.1087528 53.24148322 58.68359375 59.8828125 C61.64370817 68.70174261 65.8587859 75.40235901 74.05859375 80.0390625 C79.10021483 82.53451277 83.34058778 83.19151254 89 84 C89 89.28 89 94.56 89 100 C86.586875 100.309375 86.586875 100.309375 84.125 100.625 C74.6640529 102.38828706 67.93836621 106.87200128 62.40625 114.7265625 C57.78262878 122.20141681 57.04424634 129.24067526 58 138 C59.52990088 143.79008639 61.88351012 148.58947513 66 153 C64.52278578 156.45201639 62.56205999 158.64961936 59.875 161.25 C59.15054688 161.95640625 58.42609375 162.6628125 57.6796875 163.390625 C56.84824219 164.18726563 56.84824219 164.18726563 56 165 C53.83899818 163.92200605 51.68119281 162.83833 49.52734375 161.74609375 C48.67269531 161.31425781 47.81804687 160.88242187 46.9375 160.4375 C46.08027344 160.00308594 45.22304688 159.56867188 44.33984375 159.12109375 C37.91862208 156.0444817 30.28866945 155.86112723 23.42578125 157.68359375 C21.15307314 158.63947971 19.10578311 159.71891522 17 161 C15.95199219 161.61875 15.95199219 161.61875 14.8828125 162.25 C8.3614562 166.58116494 4.18185168 172.50555443 2.1875 180.08984375 C1.7016393 182.71146713 1.33905378 185.35538049 1 188 C-4.28 188 -9.56 188 -15 188 C-15.226875 186.55625 -15.45375 185.1125 -15.6875 183.625 C-17.33717315 175.53701916 -20.38047816 168.38635932 -27.03515625 163.24609375 C-35.23822512 158.04374987 -43.34133085 156.06735073 -53 157 C-58.755013 158.56881004 -63.60569004 160.89864404 -68 165 C-73.02508269 162.70249598 -77.00157154 159.69225223 -80 155 C-80.40476624 151.61429906 -80.25132486 148.51878695 -80.01171875 145.12109375 C-79.99707275 141.22037663 -81.04612811 139.03743698 -83.22265625 135.87890625 C-84.42946655 132.96194265 -83.7915777 131.01835235 -83 128 C-78.37301862 118.12991178 -71.23475941 105.15650627 -62 99 C-61.85304688 99.72703125 -61.70609375 100.4540625 -61.5546875 101.203125 C-58.11290041 116.63182573 -51.01953669 129.17824771 -37.90234375 138.2109375 C-25.35036681 145.94822611 -11.44470813 149.30044459 3.17919922 146.59716797 C11.82763705 144.53669402 19.75000033 141.19444421 27 136 C27.56976563 135.60039062 28.13953125 135.20078125 28.7265625 134.7890625 C39.08139298 126.87690998 46.06974704 112.68224053 48 100 C49.54235724 83.50221134 45.6697217 68.28243972 35.125 55.1875 C23.66170435 42.77877791 7.53492491 37.04015797 -9 36 C-8.5875 34.80375 -8.175 33.6075 -7.75 32.375 C-4.21356329 21.68188807 -1.41289846 11.19164306 0 0 Z " fill="#FCC528" transform="translate(399,268)"/>
<path d="M0 0 C10.15640407 7.83205289 18.34279781 18.87572728 20.5625 31.75 C21.00187369 39.62052009 20.97346382 47.20023901 18.5625 54.75 C18.30597656 55.55953125 18.04945313 56.3690625 17.78515625 57.203125 C13.84081382 68.24051241 5.85463999 75.75817897 -2.4375 83.75 C-6.80519886 82.0755737 -9.63872277 78.81484147 -12.85839844 75.55615234 C-13.49296463 74.9218782 -14.12753082 74.28760406 -14.78132629 73.6341095 C-16.87461882 71.53942522 -18.9607408 69.43774898 -21.046875 67.3359375 C-22.49803753 65.8810443 -23.94964267 64.42659244 -25.40167236 62.9725647 C-29.22011418 59.14649074 -33.03251149 55.31444838 -36.84368896 51.48114014 C-40.73461379 47.56974796 -44.63121428 43.66401915 -48.52734375 39.7578125 C-56.16963399 32.09407973 -63.80555174 24.42403095 -71.4375 16.75 C-66.28534975 5.7714639 -54.64331676 -1.90777682 -43.76171875 -6.33984375 C-28.81371548 -11.14534999 -13.02306459 -8.54265246 0 0 Z " fill="#A9B1BC" transform="translate(467.4375,32.25)"/>
<path d="M0 0 C8.34388327 6.88589945 14.65880757 16.1283728 15.8984375 27.09765625 C16.06238322 40.06576266 12.7716414 51.60176738 3.6796875 61.08984375 C-5.65088586 69.74349316 -15.93061306 72.69136937 -28.578125 72.50390625 C-39.29197816 71.4520401 -48.29927558 65.64100876 -55.625 58 C-61.62017662 50.66164174 -64.55921931 40.99217013 -64.625 31.625 C-64.63917969 30.7071875 -64.65335937 29.789375 -64.66796875 28.84375 C-64.14766258 22.70590097 -61.22344335 19.57426575 -56.875 15.5 C-50.61697522 9.4526863 -44.84485736 3.08430893 -39.90234375 -4.109375 C-31.15302122 -14.65522509 -8.79362144 -6.21906307 0 0 Z M-29.8125 26.75 C-31.92456506 29.83686432 -32.04945145 31.4532913 -31.4375 35.125 C-29.9375 37.625 -29.9375 37.625 -27.4375 39.125 C-23.7657913 39.73695145 -22.14936432 39.61206506 -19.0625 37.5 C-16.95043494 34.41313568 -16.82554855 32.7967087 -17.4375 29.125 C-18.9375 26.625 -18.9375 26.625 -21.4375 25.125 C-25.1092087 24.51304855 -26.72563568 24.63793494 -29.8125 26.75 Z " fill="#F8D36E" transform="translate(416.4375,327.875)"/>
<path d="M0 0 C4.09620634 1.62358696 6.83447899 4.56680396 9.87011719 7.64306641 C10.44616196 8.21881912 11.02220673 8.79457184 11.6157074 9.38777161 C13.51421037 11.28766537 15.40553522 13.19453991 17.296875 15.1015625 C18.61351582 16.42193434 19.93059957 17.74186464 21.24810791 19.06137085 C24.71145037 22.53234276 28.16874418 26.0092793 31.62481689 29.48748779 C35.1537998 33.03694385 38.6884642 36.58073201 42.22265625 40.125 C49.15401308 47.07779463 56.07899377 54.03690309 63 61 C61.63405747 63.73188507 60.27440496 63.87905868 57.4519043 64.98706055 C56.48387375 65.37053146 55.5158432 65.75400238 54.51847839 66.14909363 C53.46437271 66.55750992 52.41026703 66.96592621 51.32421875 67.38671875 C49.70916191 68.0186187 49.70916191 68.0186187 48.06147766 68.6632843 C45.77879819 69.55362525 43.4946677 70.44025346 41.20922852 71.32348633 C37.70773696 72.67966195 34.2141551 74.05490957 30.72070312 75.43164062 C28.50566508 76.29284235 26.2901843 77.15290639 24.07421875 78.01171875 C22.50216927 78.63345222 22.50216927 78.63345222 20.89836121 79.26774597 C19.92087418 79.64176041 18.94338715 80.01577484 17.9362793 80.40112305 C17.07769821 80.73484421 16.21911713 81.06856537 15.33451843 81.41239929 C12.71311407 82.07220949 11.48902631 82.00767354 9 81 C6.71151775 79.05149143 4.58070711 77.09657048 2.44921875 74.98828125 C1.83101761 74.38243698 1.21281647 73.77659271 0.57588196 73.15238953 C-0.72663474 71.86942422 -2.02503504 70.58226823 -3.31958008 69.29125977 C-5.30561649 67.3193346 -7.31672192 65.37561318 -9.33007812 63.43164062 C-10.59277913 62.18133484 -11.85390222 60.92943306 -13.11328125 59.67578125 C-13.71836014 59.0974202 -14.32343903 58.51905914 -14.94685364 57.923172 C-18.9631607 53.83974126 -18.9631607 53.83974126 -19.12011719 50.26196289 C-17.48959796 45.5136265 -15.78791851 40.810999 -13.96484375 36.1328125 C-13.56672989 35.09808807 -13.16861603 34.06336365 -12.75843811 32.99728394 C-11.49010612 29.70444364 -10.21392163 26.41471179 -8.9375 23.125 C-8.07434952 20.88822153 -7.21171339 18.65124451 -6.34960938 16.4140625 C-4.23902798 10.94039338 -2.12199736 5.46925284 0 0 Z " fill="#CACFD7" transform="translate(58,391)"/>
<path d="M0 0 C1.97225274 2.46371611 3.94315767 4.92821759 5.90234375 7.40234375 C12.23373457 15.28923941 19.05844421 22.65074851 26 30 C24.40752446 33.93467549 21.69337631 36.57577776 18.72412109 39.50292969 C18.18738266 40.03996017 17.65064423 40.57699066 17.09764099 41.1302948 C15.32760717 42.89893859 13.55060143 44.66039824 11.7734375 46.421875 C10.54274656 47.64883466 9.3124973 48.87623749 8.08267212 50.10406494 C4.84843484 53.33067488 1.60823592 56.55123291 -1.63323975 59.77056885 C-4.94140534 63.05825672 -8.24389946 66.35163068 -11.546875 69.64453125 C-18.02571079 76.10193298 -24.51085869 82.55295568 -31 89 C-35.03070124 87.14276623 -37.78284024 84.47282533 -40.859375 81.3359375 C-41.40861633 80.78386627 -41.95785767 80.23179504 -42.52374268 79.66299438 C-44.27059293 77.90498185 -46.01034601 76.1401311 -47.75 74.375 C-48.93573591 73.1792292 -50.1219288 71.98391135 -51.30859375 70.7890625 C-54.21105085 67.86459747 -57.1071641 64.93398126 -60 62 C-58.38376737 57.94397286 -55.49847324 55.23044472 -52.44873047 52.22167969 C-51.88273132 51.65538849 -51.31673218 51.08909729 -50.73358154 50.50564575 C-48.8661528 48.63960762 -46.99174538 46.78074904 -45.1171875 44.921875 C-43.81923589 43.62765446 -42.52172584 42.33299095 -41.22463989 41.03790283 C-37.81285164 37.63374354 -34.39509948 34.23563366 -30.97607422 30.83874512 C-27.4869408 27.37008593 -24.00347613 23.89574417 -20.51953125 20.421875 C-13.68522632 13.60900698 -6.84460797 6.8025158 0 0 Z " fill="#FE816D" transform="translate(128,315)"/>
<path d="M0 0 C8.65961745 4.06999731 15.11210391 12.75108288 20.625 20.375 C21.05055176 20.95733398 21.47610352 21.53966797 21.91455078 22.13964844 C24.19720212 25.40165204 25.88085994 27.9883811 26 32 C24.45013001 34.12934792 23.0353062 35.72554386 21.15649414 37.5246582 C20.62994736 38.05208115 20.10340057 38.57950409 19.56089783 39.12290955 C17.81616174 40.86346397 16.05113605 42.58180659 14.28515625 44.30078125 C13.07173173 45.50301579 11.85962483 46.70658157 10.64878845 47.91142273 C7.45768715 51.07961066 4.24898003 54.22937104 1.03631592 57.37567139 C-2.23853322 60.58915317 -5.49647107 63.81967898 -8.75585938 67.04882812 C-15.15410382 73.38271563 -21.57107044 79.69727097 -28 86 C-32.03070124 84.14276623 -34.78284024 81.47282533 -37.859375 78.3359375 C-38.40861633 77.78386627 -38.95785767 77.23179504 -39.52374268 76.66299438 C-41.27059293 74.90498185 -43.01034601 73.1401311 -44.75 71.375 C-45.93573591 70.1792292 -47.1219288 68.98391135 -48.30859375 67.7890625 C-51.21105085 64.86459747 -54.1071641 61.93398126 -57 59 C-55.40752446 55.06532451 -52.69337631 52.42422224 -49.72412109 49.49707031 C-49.18738266 48.96003983 -48.65064423 48.42300934 -48.09764099 47.8697052 C-46.32760717 46.10106141 -44.55060143 44.33960176 -42.7734375 42.578125 C-41.54274656 41.35116534 -40.3124973 40.12376251 -39.08267212 38.89593506 C-35.84843484 35.66932512 -32.60823592 32.44876709 -29.36676025 29.22943115 C-26.05859466 25.94174328 -22.75610054 22.64836932 -19.453125 19.35546875 C-12.97428921 12.89806702 -6.48914131 6.44704432 0 0 Z " fill="#5BD5B2" transform="translate(165,358)"/>
<path d="M0 0 C4.08923295 2.04461648 6.7169902 4.46003283 9.859375 7.6640625 C10.683237 8.49216934 10.683237 8.49216934 11.52374268 9.33700562 C13.27059293 11.09501815 15.01034601 12.8598689 16.75 14.625 C17.93573591 15.8207708 19.1219288 17.01608865 20.30859375 18.2109375 C23.21105085 21.13540253 26.1071641 24.06601874 29 27 C27.55662966 30.30194891 25.76269557 32.49017493 23.22460938 35.03417969 C22.45040649 35.81468689 21.67620361 36.59519409 20.87854004 37.39935303 C20.04205933 38.23178528 19.20557861 39.06421753 18.34375 39.921875 C17.48567749 40.78186096 16.62760498 41.64184692 15.74353027 42.52789307 C13.93027533 44.34250826 12.11449519 46.15460316 10.29638672 47.96435547 C7.50385862 50.74615621 4.72217542 53.53848145 1.94140625 56.33203125 C0.18032867 58.09178772 -1.58136894 59.85092395 -3.34375 61.609375 C-4.18023071 62.44990417 -5.01671143 63.29043335 -5.87854004 64.15643311 C-6.65274292 64.92433167 -7.4269458 65.69223022 -8.22460938 66.48339844 C-8.90696655 67.16416443 -9.58932373 67.84493042 -10.2923584 68.54632568 C-12 70 -12 70 -14 70 C-14.47308594 69.05640625 -14.94617188 68.1128125 -15.43359375 67.140625 C-19.34898696 59.48421237 -23.49911809 52.55688082 -28.82421875 45.78125 C-31.31579068 42.59633221 -33.64963832 39.29050635 -36 36 C-24.12 24.12 -12.24 12.24 0 0 Z " fill="#5BD5B2" transform="translate(399,124)"/>
<path d="M0 0 C4.03070124 1.85723377 6.78284024 4.52717467 9.859375 7.6640625 C10.683237 8.49216934 10.683237 8.49216934 11.52374268 9.33700562 C13.27059293 11.09501815 15.01034601 12.8598689 16.75 14.625 C17.93573591 15.8207708 19.1219288 17.01608865 20.30859375 18.2109375 C23.21105085 21.13540253 26.1071641 24.06601874 29 27 C27.6238464 30.09179136 26.04841555 32.19638753 23.65185547 34.57519531 C22.97130096 35.25559875 22.29074646 35.9360022 21.58956909 36.63702393 C20.85618317 37.36008728 20.12279724 38.08315063 19.3671875 38.828125 C18.61535187 39.57713074 17.86351624 40.32613647 17.08889771 41.09783936 C14.68892099 43.4866302 12.28207991 45.86836897 9.875 48.25 C8.24563648 49.86933169 6.61672466 51.48911802 4.98828125 53.109375 C0.99741194 57.07820505 -2.99911415 61.04126899 -7 65 C-7.54033875 64.59365829 -8.08067749 64.18731659 -8.63739014 63.7686615 C-9.35098694 63.23261795 -10.06458374 62.6965744 -10.79980469 62.14428711 C-11.50514343 61.6141954 -12.21048218 61.0841037 -12.93719482 60.53794861 C-20.93657198 54.57391908 -29.0391578 49.21706167 -37.83203125 44.5078125 C-38.54746094 44.01023438 -39.26289063 43.51265625 -40 43 C-40 40 -40 40 -38.48144531 38.12068176 C-37.77084961 37.41674789 -37.06025391 36.71281403 -36.328125 35.98754883 C-35.52729492 35.18694534 -34.72646484 34.38634186 -33.90136719 33.56147766 C-33.02641602 32.70201035 -32.15146484 31.84254303 -31.25 30.95703125 C-30.3621582 30.0734343 -29.47431641 29.18983734 -28.55957031 28.27946472 C-26.19749372 25.93135977 -23.82914118 23.58996475 -21.45751953 21.25152588 C-19.03919125 18.86388241 -16.62933037 16.46772672 -14.21875 14.07226562 C-9.48695353 9.37360317 -4.74670259 4.68360083 0 0 Z " fill="#FD816D" transform="translate(359,84)"/>
<path d="M0 0 C4.36769886 1.6744263 7.20122277 4.93515853 10.42089844 8.19384766 C11.05546463 8.8281218 11.69003082 9.46239594 12.34382629 10.1158905 C14.43711882 12.21057478 16.5232408 14.31225102 18.609375 16.4140625 C20.06053753 17.8689557 21.51214267 19.32340756 22.96417236 20.7774353 C26.78261418 24.60350926 30.59501149 28.43555162 34.40618896 32.26885986 C38.29711379 36.18025204 42.19371428 40.08598085 46.08984375 43.9921875 C53.73213399 51.65592027 61.36805174 59.32596905 69 67 C67.30413874 70.63303084 65.26199512 72.94549046 62.375 75.75 C61.55773437 76.54921875 60.74046875 77.3484375 59.8984375 78.171875 C59.27195312 78.77515625 58.64546875 79.3784375 58 80 C53.63230114 78.3255737 50.79877723 75.06484147 47.57910156 71.80615234 C46.94453537 71.1718782 46.30996918 70.53760406 45.65617371 69.8841095 C43.56288118 67.78942522 41.4767592 65.68774898 39.390625 63.5859375 C37.93946247 62.1310443 36.48785733 60.67659244 35.03582764 59.2225647 C31.21738582 55.39649074 27.40498851 51.56444838 23.59381104 47.73114014 C19.70288621 43.81974796 15.80628572 39.91401915 11.91015625 36.0078125 C4.26786601 28.34407973 -3.36805174 20.67403095 -11 13 C-9.30413874 9.36696916 -7.26199512 7.05450954 -4.375 4.25 C-3.55773437 3.45078125 -2.74046875 2.6515625 -1.8984375 1.828125 C-0.95871094 0.92320313 -0.95871094 0.92320313 0 0 Z " fill="#E4E7EB" transform="translate(383,60)"/>
<path d="M0 0 C6.50099074 3.68128391 11.87819747 8.78320492 13.9453125 16.1015625 C15.20908545 24.11749375 13.55801943 30.4620601 8.9453125 37.1015625 C4.23417819 42.52165392 -1.40366726 45.500713 -8.50390625 46.41796875 C-14.535995 46.70433131 -19.18658897 45.7526364 -24.0546875 42.1015625 C-30.68913654 35.90235214 -34.00272204 30.86864646 -34.4296875 21.7265625 C-34.25680824 15.00246918 -32.59983783 10.77492003 -27.9609375 5.90234375 C-19.7156089 -1.75206963 -10.78488932 -4.67199659 0 0 Z M-15.4296875 16.7265625 C-17.54175256 19.81342682 -17.66663895 21.4298538 -17.0546875 25.1015625 C-15.5546875 27.6015625 -15.5546875 27.6015625 -13.0546875 29.1015625 C-9.3829788 29.71351395 -7.76655182 29.58862756 -4.6796875 27.4765625 C-2.56762244 24.38969818 -2.44273605 22.7732712 -3.0546875 19.1015625 C-4.5546875 16.6015625 -4.5546875 16.6015625 -7.0546875 15.1015625 C-10.7263962 14.48961105 -12.34282318 14.61449744 -15.4296875 16.7265625 Z " fill="#020201" transform="translate(402.0546875,337.8984375)"/>
<path d="M0 0 C0.82175217 -0.00554901 1.64350433 -0.01109802 2.49015808 -0.01681519 C5.19911515 -0.02859978 7.90639499 -0.00434938 10.61523438 0.02148438 C12.50183028 0.02319588 14.38842856 0.02312939 16.27502441 0.0213623 C20.22606199 0.02301487 24.17653173 0.04170121 28.12744141 0.07324219 C33.1883391 0.11291954 38.24849319 0.11728702 43.30951691 0.10977936 C47.20435379 0.10670774 51.09902394 0.11883701 54.99382019 0.13591003 C56.85970514 0.14293428 58.72560898 0.14606527 60.59150696 0.1452179 C63.20067401 0.14701848 65.80895517 0.16842221 68.41796875 0.1953125 C69.18694992 0.1923819 69.95593109 0.18945129 70.74821472 0.18643188 C75.22812538 0.25756011 78.15074365 0.83251037 81.70898438 3.61523438 C83.11356174 6.42438911 82.95793595 8.50333972 82.70898438 11.61523438 C80.92914033 14.75115008 80.18590231 15.45626173 76.70898438 16.61523438 C74.01298594 16.73197864 71.34185351 16.79330414 68.64501953 16.80810547 C67.82355942 16.81628296 67.0020993 16.82446045 66.15574646 16.83288574 C63.43652066 16.85770496 60.71734686 16.87424499 57.99804688 16.88867188 C57.06927105 16.89399555 56.14049522 16.89931923 55.18357468 16.90480423 C50.26952693 16.93151804 45.35550446 16.95090041 40.44140625 16.96533203 C36.37314436 16.97868474 32.30538245 17.00656419 28.23730469 17.04736328 C23.32547237 17.09662434 18.41409442 17.12144469 13.5020256 17.12855911 C11.63049739 17.13527896 9.7589796 17.15052009 7.88759232 17.17444992 C5.26843489 17.20603646 2.65103581 17.20614872 0.03173828 17.19873047 C-0.74038498 17.2151358 -1.51250824 17.23154114 -2.30802917 17.2484436 C-6.30121249 17.20216337 -8.09686598 16.7682148 -11.27212524 14.26626587 C-13.29101562 11.61523438 -13.29101562 11.61523438 -13.91601562 8.61523438 C-12.34133028 1.05674471 -6.85076914 -0.1181608 0 0 Z " fill="#CACFD7" transform="translate(221.291015625,439.384765625)"/>
<path d="M0 0 C0.82175217 -0.00554901 1.64350433 -0.01109802 2.49015808 -0.01681519 C5.19911515 -0.02859978 7.90639499 -0.00434938 10.61523438 0.02148438 C12.50183028 0.02319588 14.38842856 0.02312939 16.27502441 0.0213623 C20.22606199 0.02301487 24.17653173 0.04170121 28.12744141 0.07324219 C33.1883391 0.11291954 38.24849319 0.11728702 43.30951691 0.10977936 C47.20435379 0.10670774 51.09902394 0.11883701 54.99382019 0.13591003 C56.85970514 0.14293428 58.72560898 0.14606527 60.59150696 0.1452179 C63.20067401 0.14701848 65.80895517 0.16842221 68.41796875 0.1953125 C69.18694992 0.1923819 69.95593109 0.18945129 70.74821472 0.18643188 C75.22812538 0.25756011 78.15074365 0.83251037 81.70898438 3.61523438 C83.11356174 6.42438911 82.95793595 8.50333972 82.70898438 11.61523438 C80.92914033 14.75115008 80.18590231 15.45626173 76.70898438 16.61523438 C74.01298594 16.73197864 71.34185351 16.79330414 68.64501953 16.80810547 C67.82355942 16.81628296 67.0020993 16.82446045 66.15574646 16.83288574 C63.43652066 16.85770496 60.71734686 16.87424499 57.99804688 16.88867188 C57.06927105 16.89399555 56.14049522 16.89931923 55.18357468 16.90480423 C50.26952693 16.93151804 45.35550446 16.95090041 40.44140625 16.96533203 C36.37314436 16.97868474 32.30538245 17.00656419 28.23730469 17.04736328 C23.32547237 17.09662434 18.41409442 17.12144469 13.5020256 17.12855911 C11.63049739 17.13527896 9.7589796 17.15052009 7.88759232 17.17444992 C5.26843489 17.20603646 2.65103581 17.20614872 0.03173828 17.19873047 C-0.74038498 17.2151358 -1.51250824 17.23154114 -2.30802917 17.2484436 C-6.30121249 17.20216337 -8.09686598 16.7682148 -11.27212524 14.26626587 C-13.29101562 11.61523438 -13.29101562 11.61523438 -13.91601562 8.61523438 C-12.34133028 1.05674471 -6.85076914 -0.1181608 0 0 Z " fill="#CACFD7" transform="translate(221.291015625,407.384765625)"/>
<path d="M0 0 C18.48 0 36.96 0 56 0 C49.7433407 9.38498894 44.15825081 13.56298326 33 16 C23.76578936 17.1440615 15.96235202 15.70846522 8.44921875 10.09375 C4.66295151 6.8570048 2.25584564 4.51169127 0 0 Z " fill="#A7AFB9" transform="translate(228,472)"/>
<path d="M0 0 C7.15801225 5.82628904 13.52591766 12.4382985 20 19 C16.8513641 22.1486359 12.81370752 23.15666167 8.6875 24.6875 C7.83220703 25.02072266 6.97691406 25.35394531 6.09570312 25.69726562 C4.84756836 26.16229492 4.84756836 26.16229492 3.57421875 26.63671875 C2.81713623 26.92248779 2.06005371 27.20825684 1.2800293 27.50268555 C-1.48898056 28.10665525 -3.30036566 27.81966771 -6 27 C-6.66 26.34 -7.32 25.68 -8 25 C-7.73216776 18.73684613 -5.93141475 13.69896558 -3.4375 8 C-3.10814453 7.22527344 -2.77878906 6.45054687 -2.43945312 5.65234375 C-1.63531413 3.76436524 -0.81892829 1.8816107 0 0 Z " fill="#C7CCD4" transform="translate(32,460)"/>
</svg>
