<?xml version="1.0" encoding="UTF-8"?>
<svg version="1.1" xmlns="http://www.w3.org/2000/svg" width="512" height="512">
<path d="M0 0 C1.00039307 0.27287842 1.00039307 0.27287842 2.02099609 0.55126953 C35.44955473 9.87261444 62.6099668 33.44643316 80.25 62.8125 C89.97627813 80.51113725 96.10800277 100.52405008 96.17700195 120.79003906 C96.18357315 121.64145981 96.19014435 122.49288055 96.19691467 123.37010193 C96.21651452 126.16861073 96.22827964 128.96706624 96.23828125 131.765625 C96.24235678 132.72737389 96.2464323 133.68912277 96.25063133 134.68001556 C96.27143415 139.76958496 96.28576147 144.85912786 96.29516602 149.94873047 C96.30622573 155.18159994 96.34063749 160.41404369 96.38033772 165.64676285 C96.40658176 169.69275662 96.41486469 173.73864999 96.41844749 177.78472137 C96.42329231 179.71267323 96.43484558 181.64062124 96.45348549 183.56848907 C96.58077976 197.60489733 95.78330772 208.60468357 86.26953125 219.70703125 C80.25721146 225.7814404 73.41849774 230.19234711 65 232 C64.01 232 63.02 232 62 232 C61.87044922 232.87398438 61.87044922 232.87398438 61.73828125 233.765625 C60.85185353 238.93780879 59.48879892 243.52855309 57.41796875 248.359375 C56.73963989 249.95217285 56.73963989 249.95217285 56.04760742 251.57714844 C55.70189697 252.37668945 55.35618652 253.17623047 55 254 C56.19079666 253.99111755 57.38159332 253.98223511 58.60847473 253.9730835 C69.8628455 253.89178973 81.11715624 253.83193495 92.37175465 253.79275131 C98.1570598 253.77192897 103.9421268 253.74370922 109.72729492 253.69824219 C115.31645213 253.65459348 120.90538109 253.63082268 126.49469566 253.62049103 C128.62082191 253.61313374 130.7469365 253.59876708 132.87296486 253.57707977 C148.15321737 253.42749029 160.38621295 253.89116021 172 265 C181.28024264 274.88667433 184.97902386 286.57128037 184.62060547 300.00244141 C183.69471866 312.86813878 178.94704081 325.58863996 175.25335693 337.87835693 C174.11864025 341.67107152 173.01053261 345.47151936 171.90039062 349.27148438 C168.62895927 360.44356978 165.32831631 371.60690611 161.96458149 382.7515707 C161.09934148 385.62573962 160.2430362 388.50252166 159.38856316 391.37990761 C158.98535192 392.7295363 158.57799431 394.07793408 158.16623116 395.42497826 C157.60041966 397.27669758 157.04972283 399.1330151 156.49975586 400.98950195 C156.18469589 402.03411087 155.86963593 403.07871979 155.54502869 404.15498352 C154.69245468 408.60536782 155.48455013 411.13715722 157.78515625 414.98828125 C158.53975781 416.09943247 159.29915812 417.20733498 160.0625 418.3125 C168.52706273 431.07636158 174.25465951 444.47638214 179 459 C180.26275757 459.01401855 180.26275757 459.01401855 181.55102539 459.02832031 C184.70305185 459.07258364 187.8541384 459.13430836 191.00561523 459.20751953 C192.36421422 459.23557843 193.72297186 459.25686744 195.08178711 459.27099609 C209.12358648 459.42569825 209.12358648 459.42569825 215 464 C220.70486984 470.1552543 220.24145597 475.75517824 220.3125 483.75 C220.34150391 484.8225 220.37050781 485.895 220.40039062 487 C220.45320863 493.59818783 219.96744792 497.65697708 216 503 C210.86094747 507.7630243 206.79458243 508.1472054 200.02913284 508.13422108 C198.79119677 508.13774942 198.79119677 508.13774942 197.52825189 508.14134905 C194.73881262 508.14805193 191.9494198 508.14758044 189.15997314 508.14717102 C187.14946952 508.15046884 185.13896657 508.15419423 183.12846446 508.1583125 C177.58478779 508.16834985 172.04112195 508.17205207 166.49743748 508.17470181 C160.5259257 508.17859968 154.55442255 508.18817831 148.58291626 508.19691467 C134.83531454 508.21575785 121.08771126 508.22593689 107.34010017 508.23437535 C100.54832765 508.23858062 93.75655601 508.24380275 86.96478424 508.24905988 C63.72132289 508.26695015 40.47786128 508.28194697 17.23439407 508.28938007 C15.77497186 508.28985483 14.31554964 508.29033072 12.85612743 508.29080774 C11.77050247 508.2911623 11.77050247 508.2911623 10.6629457 508.29152403 C6.99600025 508.29272524 3.32905481 508.29394068 -0.33789062 508.29516602 C-1.06560989 508.29540617 -1.79332915 508.29564632 -2.54310051 508.29589374 C-26.14302996 508.3037885 -49.74290919 508.32722394 -73.34281671 508.35972196 C-98.28698276 508.39400845 -123.23111941 508.41373009 -148.17530942 508.41702431 C-150.9128248 508.41744186 -153.65034017 508.41792143 -156.38785553 508.41844749 C-157.0619215 508.41857069 -157.73598747 508.41869388 -158.43047969 508.4188208 C-169.28476051 508.42115423 -180.13898306 508.43682206 -190.9932431 508.45728934 C-201.90047755 508.47753046 -212.80763854 508.48269894 -223.71488807 508.47351871 C-229.62557559 508.46896118 -235.53607361 508.47094457 -241.44673538 508.49028015 C-246.85525996 508.50782072 -252.26345552 508.50698837 -257.67198315 508.49138286 C-259.63095923 508.48899291 -261.58995756 508.49340163 -263.5488995 508.50521151 C-266.20825813 508.52025382 -268.86643934 508.51071133 -271.52576828 508.49498463 C-272.28944222 508.50520683 -273.05311615 508.51542904 -273.83993173 508.52596101 C-279.3046912 508.45524582 -282.47656829 507.08817047 -287 504 C-292.70486984 497.8447457 -292.24145597 492.24482176 -292.3125 484.25 C-292.34150391 483.1775 -292.37050781 482.105 -292.40039062 481 C-292.45320863 474.40181217 -291.96744792 470.34302292 -288 465 C-283.23290895 460.58172049 -279.74580208 459.87869264 -273.36328125 459.68359375 C-272.06455078 459.64169922 -270.76582031 459.59980469 -269.42773438 459.55664062 C-268.05599239 459.51683013 -266.68424756 459.47711784 -265.3125 459.4375 C-263.92902355 459.39429165 -262.54555973 459.35067661 -261.16210938 459.30664062 C-257.77484281 459.20041972 -254.38750201 459.09837642 -251 459 C-250.5875 457.8140625 -250.175 456.628125 -249.75 455.40625 C-244.42129047 440.35256735 -238.53460671 426.55713096 -228.58984375 413.96484375 C-225.38940778 407.99646315 -228.83845188 400.66170528 -230.68383789 394.49487305 C-231.09370689 393.1029348 -231.09370689 393.1029348 -231.51185608 391.68287659 C-232.10315497 389.67500184 -232.69634175 387.66768229 -233.2912159 385.66086388 C-234.56028088 381.37022972 -235.81159634 377.07448693 -237.06394863 372.77895069 C-239.39144299 364.79593917 -241.72527335 356.8149732 -244.09204102 348.84350586 C-245.74172853 343.28470387 -247.36728906 337.7193175 -248.97784233 332.14905739 C-249.59149052 330.04292644 -250.21368583 327.93926392 -250.84507942 325.83838463 C-255.77001978 309.42990339 -260.03931661 292.22050352 -252 276 C-246.02652006 265.62033932 -237.82117764 257.88438888 -226.11446762 254.44623661 C-223.95432229 253.99036019 -222.04188897 253.87688874 -219.83648682 253.87974548 C-218.60397942 253.87768349 -218.60397942 253.87768349 -217.34657288 253.87557983 C-216.45393234 253.87917511 -215.56129181 253.88277039 -214.64160156 253.88647461 C-213.22158089 253.88625557 -213.22158089 253.88625557 -211.77287292 253.8860321 C-208.6454336 253.88672847 -205.51805392 253.89450802 -202.390625 253.90234375 C-200.22157829 253.90420891 -198.05253117 253.90563235 -195.88348389 253.90663147 C-190.17558631 253.91044894 -184.46771418 253.92027269 -178.75982666 253.93133545 C-172.93494003 253.9415661 -167.11004928 253.94613264 -161.28515625 253.95117188 C-149.85675965 253.96189562 -138.42838194 253.97896283 -127 254 C-127.34571045 253.20045898 -127.6914209 252.40091797 -128.04760742 251.57714844 C-128.49982666 250.5152832 -128.9520459 249.45341797 -129.41796875 248.359375 C-129.8668042 247.31233398 -130.31563965 246.26529297 -130.77807617 245.18652344 C-132.43231545 240.87261113 -133.32434553 236.55814659 -134 232 C-134.556875 231.90203125 -135.11375 231.8040625 -135.6875 231.703125 C-148.08631364 229.27362773 -156.62161923 223.07163679 -163.67578125 212.6015625 C-167.08502865 205.90374903 -168.44783007 199.59858256 -168.40405273 192.12573242 C-168.41091599 191.28847626 -168.41777924 190.45122009 -168.42485046 189.58859253 C-168.44301808 186.84404085 -168.43929091 184.10006721 -168.43359375 181.35546875 C-168.43816456 179.42084064 -168.44347278 177.48621415 -168.44947815 175.55158997 C-168.45839291 171.49925136 -168.45600972 167.44710992 -168.44604492 163.39477539 C-168.43463385 158.25918634 -168.45465368 153.12429302 -168.48396206 147.98879528 C-168.50252942 143.98958663 -168.50199002 139.99053782 -168.49632454 135.99129677 C-168.49617341 134.10150499 -168.50204112 132.21170086 -168.51461601 130.32195091 C-168.73032815 92.5529223 -155.00003514 59.78614781 -128.875 32.5 C-95.52845912 -0.10240608 -44.8914889 -12.77963555 0 0 Z " fill="#000000" transform="translate(292,4)"/>
<path d="M0 0 C1.28593678 -0.00569124 2.57187355 -0.01138248 3.89677811 -0.01724619 C5.32700339 -0.0185388 6.75722877 -0.01972683 8.18745422 -0.02082157 C9.70440679 -0.0255528 11.2213581 -0.03070375 12.73830795 -0.03623921 C16.91328106 -0.05014723 21.08824544 -0.05772945 25.26323581 -0.0642122 C28.84273591 -0.0705834 32.42222169 -0.08065349 36.00171286 -0.09077286 C47.79554234 -0.12409728 59.58938053 -0.14561872 71.38324165 -0.16397271 C74.45453032 -0.16876811 77.52581864 -0.17375139 80.59710693 -0.17877793 C99.67145597 -0.20975022 118.74580804 -0.23643423 137.82017517 -0.25319672 C142.23841863 -0.25714619 146.65666204 -0.26114918 151.0749054 -0.2652216 C152.72209607 -0.26673414 152.72209607 -0.26673414 154.40256333 -0.26827724 C172.18691887 -0.2852799 189.97113515 -0.32638461 207.75542271 -0.37724458 C226.01660726 -0.42903851 244.27772024 -0.45814135 262.53897762 -0.4653936 C272.79099318 -0.47005367 283.04278073 -0.48478205 293.29472351 -0.5251379 C302.02695349 -0.55946988 310.75891431 -0.57336438 319.4912079 -0.56071376 C323.94447663 -0.55489427 328.39717634 -0.55870047 332.85035896 -0.5888834 C336.93317646 -0.61632944 341.01502295 -0.6156853 345.09786284 -0.59337295 C346.56902473 -0.59016147 348.04025263 -0.59695127 349.51130521 -0.61517017 C360.10784212 -0.73837337 368.82305154 0.94626308 377.00903702 8.084961 C382.92336041 14.11748868 385.89279492 21.44942208 386.46601868 29.8273077 C386.16099306 37.88737846 383.56691646 45.17769001 381.10664368 52.7882452 C378.10629185 62.1105773 375.45805081 71.53378959 372.77851868 80.9523077 C372.51651672 81.87006985 372.25451477 82.78783199 371.98457336 83.73340511 C368.90747266 94.51238738 365.89343201 105.30229825 363.02851868 116.1398077 C360.6020229 125.31381713 357.90073313 134.37273644 355.05464172 143.42471981 C351.2255821 155.7081219 347.80603705 168.10741881 344.37129211 180.5057745 C344.14020248 181.33537685 343.90911285 182.16497921 343.67102051 183.01972103 C343.23265907 184.59376403 342.79709136 186.1685884 342.36465454 187.74426937 C340.89110104 193.02722534 340.89110104 193.02722534 339.77851868 194.1398077 C338.05308301 194.23714017 336.32362141 194.26352252 334.59544277 194.26285553 C333.46483156 194.26484658 332.33422034 194.26683763 331.16934818 194.26888901 C329.91159377 194.26597617 328.65383937 194.26306333 327.35797119 194.26006222 C326.02067261 194.2604978 324.68337411 194.26137247 323.34607607 194.26265138 C319.65421471 194.26489885 315.96238208 194.26087165 312.27052438 194.25587332 C308.29572635 194.25157259 304.32093007 194.25301498 300.34613037 194.2537756 C293.45385285 194.25430107 286.56158476 194.25115182 279.66930962 194.24553776 C269.70411995 194.23742594 259.73893487 194.23480787 249.77374227 194.23354977 C233.6076072 194.23135874 217.44147718 194.2246973 201.27534485 194.21524715 C185.56733729 194.20607433 169.8593311 194.19899287 154.15132141 194.19473934 C153.18379757 194.19447662 152.21627372 194.19421389 151.21943098 194.19394321 C146.36586253 194.19263821 141.51229408 194.1913745 136.65872562 194.19013131 C96.3653198 194.17975713 56.07191953 194.16213746 15.77851868 194.1398077 C15.30095567 192.88528454 14.82522181 191.63006499 14.35023499 190.37456417 C14.08510983 189.67564084 13.81998466 188.97671751 13.54682541 188.25661469 C12.38457961 185.05444304 11.45586108 181.79086257 10.54414368 178.51090145 C10.34543167 177.80783871 10.14671967 177.10477596 9.94198608 176.38040829 C9.51955971 174.88538259 9.09853129 173.38996128 8.67881775 171.89417171 C7.57261615 167.95303325 6.45569313 164.01494814 5.33711243 160.0773077 C5.11617416 159.29935345 4.8952359 158.52139919 4.66760254 157.71987057 C3.18182637 152.50690314 1.64333437 147.31306791 0.03657532 142.13590145 C-0.27545837 141.12656551 -0.58749207 140.11722958 -0.90898132 139.0773077 C-1.15178833 138.29432812 -1.39459534 137.51134853 -1.64476013 136.7046423 C-3.69300196 130.03258994 -5.53157313 123.32230283 -7.30741882 116.57340145 C-9.87795594 106.9134156 -12.59883102 97.30684526 -15.43058968 87.72105122 C-16.06262766 85.5807091 -16.69232427 83.43969143 -17.32131958 81.29845333 C-19.89080201 72.55262675 -19.89080201 72.55262675 -22.48832703 63.81510067 C-23.57388263 60.18410612 -24.64332934 56.54869285 -25.70259285 52.90994549 C-26.10144059 51.5504982 -26.50594767 50.1926956 -26.91671562 48.83680248 C-30.21867413 37.92371497 -32.5362106 27.29366995 -27.61210632 16.52652645 C-23.03492059 8.67073859 -17.20325478 3.29119708 -8.49411297 0.60753006 C-5.6238093 0.01680292 -2.93190739 0.00756803 0 0 Z " fill="#445963" transform="translate(78.22148132324219,269.86019229888916)"/>
<path d="M0 0 C1.90845703 0.51046875 1.90845703 0.51046875 3.85546875 1.03125 C33.90825605 9.45791656 60.133455 28.9277915 75.91650391 56.05957031 C81.81185795 66.617541 86.09288932 77.24719753 89 89 C89.26876953 89.93577881 89.53753906 90.87155762 89.81445312 91.83569336 C92.93607059 103.86937223 92.32905364 116.03579574 92.1875 128.375 C92.17242317 130.67186621 92.15874008 132.96874201 92.14648438 135.265625 C92.11372323 140.84396234 92.06376281 146.42193532 92 152 C91.18668213 151.51644043 90.37336426 151.03288086 89.53540039 150.53466797 C88.46281982 149.90189941 87.39023926 149.26913086 86.28515625 148.6171875 C84.69392944 147.67528564 84.69392944 147.67528564 83.07055664 146.71435547 C75.0692796 142.24707651 67.63194996 141.79087078 58.66943359 141.47631836 C33.99569363 140.40323393 7.96991269 132.24557857 -9.1015625 113.67578125 C-10.69150423 111.93215236 -12.26455889 110.1807285 -13.8034668 108.3918457 C-17.4798922 104.20496205 -20.17673451 102.35342188 -25.68359375 101.6640625 C-26.59238281 101.65117188 -27.50117188 101.63828125 -28.4375 101.625 C-29.34371094 101.59664063 -30.24992187 101.56828125 -31.18359375 101.5390625 C-37.72320749 102.60934602 -41.63792855 107.55915916 -45.75 112.3125 C-62.75060584 131.2271858 -88.6059524 139.90461125 -113.5703125 141.296875 C-115.04673234 141.36762583 -116.52329845 141.43539533 -118 141.5 C-129.17107844 142.00817952 -136.6480684 144.99318239 -146 151 C-146.66 151.33 -147.32 151.66 -148 152 C-148.12935753 145.44301046 -148.21538923 138.88636197 -148.2746582 132.32836914 C-148.29942792 130.10884313 -148.33325377 127.88939521 -148.37719727 125.67016602 C-148.79775128 103.84588666 -146.1246043 83.54611109 -136 64 C-135.66484375 63.33419922 -135.3296875 62.66839844 -134.984375 61.98242188 C-129.83905218 51.85496744 -123.72582158 43.30567838 -116 35 C-115.19820312 34.11699219 -114.39640625 33.23398437 -113.5703125 32.32421875 C-99.52407056 17.51809815 -80.53995014 6.64810461 -61 1 C-60.33403809 0.80535156 -59.66807617 0.61070313 -58.98193359 0.41015625 C-40.18150536 -4.87382174 -18.82395112 -5.38447506 0 0 Z " fill="#36464E" transform="translate(284,15)"/>
<path d="M0 0 C4.5132449 1.03976022 6.28366209 3.66239085 9.1484375 7.1484375 C29.55940082 30.41418338 58.58713247 36.90109345 88.0859375 40.7109375 C88.13703008 48.30571591 88.17183451 55.9004493 88.19580078 63.49536133 C88.20580173 66.07415422 88.21940682 68.65293594 88.23681641 71.23168945 C88.26132603 74.95787327 88.27248004 78.68390597 88.28125 82.41015625 C88.29157257 83.5461174 88.30189514 84.68207855 88.31253052 85.85246277 C88.31401132 96.63686777 87.24550356 107.10701362 83.1484375 117.1484375 C82.77041992 118.12973633 82.77041992 118.12973633 82.38476562 119.13085938 C80.81824017 123.13331188 79.01646532 126.84988186 77.0859375 130.7109375 C26.2659375 130.7109375 -24.5540625 130.7109375 -76.9140625 130.7109375 C-84.7001252 113.84113499 -88.27713404 100.87142448 -88.109375 82.41015625 C-88.10513016 80.60657402 -88.10513016 80.60657402 -88.10079956 78.76655579 C-88.08972539 74.9770759 -88.0646454 71.18784431 -88.0390625 67.3984375 C-88.02901618 64.80794615 -88.01989325 62.21745105 -88.01171875 59.62695312 C-87.98982806 53.3215318 -87.95648043 47.0162524 -87.9140625 40.7109375 C-86.81953514 40.55421822 -86.81953514 40.55421822 -85.70289612 40.39433289 C-82.33588038 39.90757773 -78.97072336 39.40893607 -75.60546875 38.91015625 C-74.45808228 38.74608276 -73.3106958 38.58200928 -72.12854004 38.41296387 C-45.95706427 34.49674339 -22.11365745 23.60992684 -5.30078125 2.80078125 C-2.9140625 0.7109375 -2.9140625 0.7109375 0 0 Z " fill="#FDCABA" transform="translate(255.9140625,127.2890625)"/>
<path d="M0 0 C1.22155633 -0.00654048 1.22155633 -0.00654048 2.46779057 -0.0132131 C5.22020656 -0.02423653 7.97212861 -0.01371454 10.72454166 -0.00342751 C12.70831166 -0.00688127 14.69207974 -0.01164394 16.67584378 -0.01760924 C22.14555204 -0.03018758 27.61510424 -0.0239179 33.08481324 -0.01465058 C38.9765186 -0.00788825 44.86819633 -0.01832732 50.75989628 -0.02659035 C61.64104919 -0.03918671 72.52214819 -0.03805652 83.40330399 -0.02985594 C93.45504051 -0.02231741 103.50675867 -0.02033536 113.55849743 -0.02392387 C114.55756655 -0.02426761 114.55756655 -0.02426761 115.57681889 -0.02461828 C118.28034165 -0.02555226 120.98386441 -0.02650746 123.68738715 -0.02749758 C149.0638461 -0.03668062 174.44027318 -0.02834482 199.81672721 -0.01220688 C222.37374873 0.00202896 244.93071944 0.00075812 267.48774052 -0.01358986 C292.81546164 -0.02964626 318.14315458 -0.03602779 343.47088009 -0.02675307 C346.16986532 -0.02579088 348.86885056 -0.02485236 351.56783581 -0.02392387 C352.232422 -0.02368664 352.89700818 -0.02344941 353.58173335 -0.02320499 C363.62770034 -0.01978931 373.67364699 -0.0237895 383.71961117 -0.03136253 C395.14052317 -0.03976188 406.56137328 -0.03753048 417.98227816 -0.0215203 C423.8135715 -0.01361624 429.64476153 -0.01058222 435.47605419 -0.02046776 C440.80851839 -0.02937116 446.14078299 -0.02455403 451.47322894 -0.0085351 C453.40791971 -0.00516873 455.34262717 -0.00692266 457.27730732 -0.01416247 C459.8965511 -0.02321624 462.51510101 -0.01399883 465.13430786 0 C465.89463242 -0.0070235 466.65495698 -0.014047 467.43832168 -0.02128333 C470.55140163 0.01222843 472.8125526 0.21253368 475.59660679 1.65917528 C478.19933554 4.57569845 477.70472108 8.11068705 477.6300745 11.81502342 C477.64554325 12.57879295 477.661012 13.34256248 477.6769495 14.12947655 C477.67179325 14.87004295 477.666637 15.61060936 477.6613245 16.37361717 C477.65681278 17.0457827 477.65230106 17.71794823 477.64765263 18.41048241 C476.85976359 21.4048324 475.57567222 22.48585701 473.1300745 24.37752342 C470.33301323 24.76953633 467.93017198 24.91532371 465.13430786 24.88088799 C464.31848353 24.88670175 463.5026592 24.89251551 462.66211292 24.89850545 C459.91065404 24.91317866 457.16007703 24.89918635 454.4086237 24.88545799 C452.42327591 24.89006401 450.43793154 24.8964149 448.45259434 24.90436697 C442.98317441 24.92112436 437.51403227 24.91278486 432.0446111 24.9004221 C426.15157058 24.89140015 420.25857903 24.90532707 414.36554813 24.91634178 C403.48401915 24.93313104 392.602586 24.93163314 381.72105189 24.92069591 C371.66997032 24.91064268 361.61892137 24.90800267 351.56783581 24.91278648 C350.56865211 24.91324479 350.56865211 24.91324479 349.54928287 24.91371236 C346.84544018 24.91495767 344.14159751 24.91623126 341.43775486 24.91755142 C316.06298532 24.92979318 290.68827248 24.9186842 265.31351169 24.89716383 C242.75632322 24.87817857 220.19922507 24.87988107 197.64203739 24.8990078 C172.31284752 24.92041305 146.98370774 24.92892727 121.65451008 24.91655874 C118.95583921 24.91527582 116.25716832 24.91402447 113.55849743 24.91278648 C112.89399032 24.91247017 112.22948321 24.91215386 111.54483952 24.91182797 C101.49796013 24.9072728 91.4511169 24.91260894 81.40424252 24.9227047 C69.9844062 24.93390003 58.56467991 24.93093659 47.14485627 24.90958172 C41.3136529 24.89903837 35.48263327 24.89500527 29.65143108 24.90817833 C24.32023611 24.9200401 18.98939633 24.91364296 13.65823389 24.89226812 C11.72291943 24.88777558 9.78757536 24.89012716 7.85227972 24.89977127 C5.2344181 24.91182272 2.61779534 24.89957633 0 24.88088799 C-0.76266573 24.89025265 -1.52533145 24.89961731 -2.31110826 24.90926576 C-7.39725334 24.83600092 -7.39725334 24.83600092 -9.83753437 22.4690032 C-10.93649466 20.24266362 -11.25593576 18.84219975 -11.268363 16.37361717 C-11.27223019 15.63305077 -11.27609737 14.89248436 -11.28008175 14.12947655 C-11.26848019 13.36570702 -11.25687862 12.60193748 -11.2449255 11.81502342 C-11.25652706 11.0473867 -11.26812862 10.27974998 -11.28008175 9.48885155 C-11.25143278 4.01212364 -11.25143278 4.01212364 -9.8368935 1.65917528 C-6.75732827 -0.34743108 -3.55662116 -0.03275344 0 0 Z " fill="#FEC006" transform="translate(22.869925498962402,475.6224765777588)"/>
<path d="M0 0 C3.33096586 2.04982514 6.47515934 4.34747132 9.08203125 7.28125 C9.08203125 7.94125 9.08203125 8.60125 9.08203125 9.28125 C10.46261719 9.0646875 10.46261719 9.0646875 11.87109375 8.84375 C22.89024672 7.22790679 33.43781198 6.59232852 44.51953125 8.21875 C48.55513726 8.65391132 48.55513726 8.65391132 52.06640625 6.9296875 C53.20967607 5.69726361 54.31936543 4.43289161 55.39453125 3.140625 C59.79125695 -1.70391536 65.69200909 -2.9729861 72.01953125 -3.28125 C80.75537 -2.92604436 86.69531255 0.43926349 92.58203125 6.78125 C97.66792254 12.70089396 98.48202606 17.63151486 98.33203125 25.28125 C97.98792315 29.41054719 97.02862152 32.64025929 95.08203125 36.28125 C94.58896484 37.20550781 94.58896484 37.20550781 94.0859375 38.1484375 C90.3652423 44.14789758 84.6513724 47.09146962 78.08203125 49.28125 C69.5713127 50.10638892 62.87761095 49.76284066 56.08203125 44.28125 C50.65060041 39.30597449 46.53778356 33.73991971 45.91015625 26.22265625 C45.89689204 24.57457813 45.97922363 22.92617189 46.08203125 21.28125 C40.88850905 20.42135014 35.90416786 20.12784512 30.64453125 20.15625 C29.5762207 20.15044922 29.5762207 20.15044922 28.48632812 20.14453125 C23.6052064 20.15339796 18.91476945 20.59475055 14.08203125 21.28125 C14.16453125 22.23 14.24703125 23.17875 14.33203125 24.15625 C14.2911113 30.89440132 11.47328357 37.16719091 7.01953125 42.15625 C0.92667704 47.66325284 -7.2976261 50.12338194 -15.44140625 49.72265625 C-23.02199737 48.37154143 -28.79034619 44.34352758 -33.51171875 38.375 C-37.90340893 31.83626129 -39.04815293 25.08386767 -37.91796875 17.28125 C-35.11906389 8.3921355 -29.49105875 2.95607623 -21.60546875 -1.65625 C-14.01253915 -3.84404327 -7.09309543 -3.5784986 0 0 Z " fill="#040403" transform="translate(225.91796875,170.71875)"/>
<path d="M0 0 C7.86314639 4.51402848 12.86621775 11.96399369 18.32421875 19.02734375 C22.10568024 23.90733036 26.02806413 28.67186292 29.95947266 33.43139648 C35.70963521 40.44494729 39.3200182 45.35419125 39.703125 54.64453125 C38.71412139 61.55578268 34.75007575 66.34977219 30.375 71.5 C29.20201095 72.9092297 28.03015571 74.31940384 26.859375 75.73046875 C26.27349609 76.43349121 25.68761719 77.13651367 25.08398438 77.86083984 C22.53242897 80.96134417 20.08174147 84.13680878 17.625 87.3125 C3.21640454 105.73950129 3.21640454 105.73950129 -5.08203125 107.44140625 C-12.05919908 107.61496764 -16.48491191 105.64837503 -21.625 100.9375 C-25.05001919 97.22629322 -25.92322848 93.54750376 -26.25 88.5625 C-25.94817833 82.18975096 -23.59314424 78.77013281 -19.625 73.9375 C-18.56176077 72.61257205 -17.49933374 71.28699211 -16.4375 69.9609375 C-14.1594276 67.12975156 -11.86334018 64.31478952 -9.55078125 61.51171875 C-7.50867309 59.03261098 -5.51526843 56.53578416 -3.625 53.9375 C-5.33755814 49.93168871 -8.04034209 46.73662636 -10.75 43.375 C-26.75252262 23.27536637 -26.75252262 23.27536637 -25.625 11.9375 C-23.72914964 6.29116307 -19.80067934 2.76532372 -14.73828125 -0.1484375 C-9.93231675 -2.22717261 -4.8921427 -1.43390389 0 0 Z " fill="#020303" transform="translate(320.625,327.0625)"/>
<path d="M0 0 C5.05547494 2.76620327 9.05138707 6.45723255 11.3125 11.8125 C12.29431267 18.73308196 11.33448333 24.11469028 7.3125 29.8125 C4.63776243 33.13899324 1.89073908 36.3847615 -0.9140625 39.6015625 C-4.34433996 43.53898571 -7.53603308 47.64998226 -10.6875 51.8125 C-8.97494186 55.81831129 -6.27215791 59.01337364 -3.5625 62.375 C12.40528875 82.43100688 12.40528875 82.43100688 11.3125 92.8125 C9.37344539 99.00904407 6.05456254 102.66643101 0.42578125 105.89453125 C-4.44872629 108.01192362 -9.51134495 107.1849491 -14.4375 105.625 C-20.67875618 102.14429944 -24.85362841 96.33959964 -29.3125 90.875 C-29.92279053 90.13008301 -30.53308105 89.38516602 -31.16186523 88.61767578 C-35.06476572 83.83938213 -38.93121947 79.03328591 -42.75 74.1875 C-43.17812988 73.64488525 -43.60625977 73.10227051 -44.04736328 72.54321289 C-45.27332031 70.97606743 -46.48053121 69.39431601 -47.6875 67.8125 C-48.14366699 67.21469727 -48.59983398 66.61689453 -49.06982422 66.00097656 C-49.51986816 65.39479492 -49.96991211 64.78861328 -50.43359375 64.1640625 C-50.84150146 63.61830566 -51.24940918 63.07254883 -51.66967773 62.51025391 C-54.11517071 58.43110827 -54.35037761 53.4447519 -53.6875 48.8125 C-51.67244875 43.00197549 -48.64274754 38.90601673 -44.6875 34.25 C-43.51451095 32.8407703 -42.34265571 31.43059616 -41.171875 30.01953125 C-40.58599609 29.31650879 -40.00011719 28.61348633 -39.39648438 27.88916016 C-36.84492897 24.78865583 -34.39424147 21.61319122 -31.9375 18.4375 C-13.99631815 -4.5072889 -13.99631815 -4.5072889 0 0 Z " fill="#020303" transform="translate(205.6875,327.1875)"/>
<path d="M0 0 C5.82097956 3.40819435 9.58136802 7.59022375 11.7265625 14.04296875 C11.93012052 21.64843314 9.95396553 29.20448323 8.1640625 36.54296875 C7.62272686 38.81617522 7.08242105 41.08962711 6.54296875 43.36328125 C6.25180176 44.5843457 5.96063477 45.80541016 5.66064453 47.06347656 C4.63544771 51.40031368 3.66249526 55.74843929 2.69140625 60.09765625 C2.34133302 61.65822686 1.99115393 63.21877373 1.64086914 64.77929688 C1.12603298 67.07316231 0.61276001 69.36730204 0.10543823 71.6628418 C-5.78843932 98.29490218 -5.78843932 98.29490218 -12.2734375 104.04296875 C-17.17597452 106.79471533 -22.70318504 108.19804048 -28.2734375 107.04296875 C-33.35765194 104.7884722 -37.19833681 101.7171218 -40.2734375 97.04296875 C-43.45259083 87.50550876 -40.71416626 77.11494438 -38.2109375 67.73046875 C-37.56558575 65.19741327 -36.92334352 62.66375762 -36.28515625 60.12890625 C-36.11968292 59.47733047 -35.95420959 58.8257547 -35.78372192 58.1544342 C-33.66736069 49.7585113 -31.88375197 41.28789407 -30.09249878 32.81771851 C-24.61233642 6.92056374 -24.61233642 6.92056374 -16.6484375 1.16796875 C-11.28279633 -1.90381096 -5.74737069 -2.4194258 0 0 Z " fill="#030303" transform="translate(271.2734375,326.95703125)"/>
<path d="M0 0 C2.38671875 1.9140625 2.38671875 1.9140625 4.6875 4.625 C5.10974854 5.11572998 5.53199707 5.60645996 5.96704102 6.11206055 C7.33642426 7.7222863 8.67211065 9.35542337 10 11 C10.44537109 11.55091309 10.89074219 12.10182617 11.34960938 12.66943359 C13.65635801 15.54288346 15.92654347 18.44163542 18.171875 21.36328125 C20.11265206 23.8834253 22.10438432 26.34935439 24.140625 28.79296875 C24.65052979 29.41389404 25.16043457 30.03481934 25.68579102 30.67456055 C26.66197238 31.86118192 27.64894598 33.03903493 28.64819336 34.20629883 C30.70079815 36.72908064 31.9439201 38.7519289 32.6640625 41.9375 C31.68715863 46.44275079 29.18159339 49.08540431 26.1875 52.5 C24.98838558 53.91695601 23.7904901 55.33494436 22.59375 56.75390625 C21.98917969 57.46305176 21.38460938 58.17219727 20.76171875 58.90283203 C18.14853832 62.01358867 15.67157431 65.22357109 13.1875 68.4375 C11.86804138 70.11227926 10.54404867 71.78335282 9.21826172 73.453125 C8.0586049 74.92558704 6.92123572 76.41552138 5.78515625 77.90625 C3.95521363 80.18226308 2.29425376 82.19460622 0 84 C-3.875 84.25 -3.875 84.25 -7 83 C-9 80 -9 80 -8.8984375 76.66015625 C-7.86926888 72.46741278 -6.49870029 70.62395316 -3.625 67.4375 C-2.71927764 66.40807328 -1.81571945 65.3767394 -0.9140625 64.34375 C-0.44000977 63.80621094 0.03404297 63.26867187 0.52246094 62.71484375 C3.11702693 59.70356953 5.5545129 56.57009141 8 53.4375 C8.46841309 52.84187256 8.93682617 52.24624512 9.41943359 51.63256836 C13.49485946 46.98816531 13.49485946 46.98816531 15.03125 41.3203125 C13.56066571 36.58547671 10.72801136 33.56814869 7.5 29.875 C6.22496443 28.36723537 4.95153195 26.85811366 3.6796875 25.34765625 C3.05416992 24.61047363 2.42865234 23.87329102 1.78417969 23.11376953 C-0.6587031 20.2196153 -3.03897646 17.29410193 -5.375 14.3125 C-6.08398438 13.42175781 -6.79296875 12.53101563 -7.5234375 11.61328125 C-9.29245545 8.48240027 -9.37772771 6.54368232 -9 3 C-6.77438836 -0.70935273 -4.04100738 -0.45728497 0 0 Z " fill="#FAFAFA" transform="translate(316,338)"/>
<path d="M0 0 C2 3 2 3 1.92578125 6.31640625 C0.86912573 10.52073601 -0.92447347 12.86438174 -3.8125 15.9375 C-4.80687186 17.05941956 -5.79760402 18.18457292 -6.78515625 19.3125 C-7.30609863 19.90417969 -7.82704102 20.49585938 -8.36376953 21.10546875 C-11.26690081 24.46689799 -14.02615263 27.93007454 -16.75 31.4375 C-17.28729736 32.09935303 -17.82459473 32.76120605 -18.37817383 33.44311523 C-20.64582319 36.39475971 -21.93686533 38.20134647 -22.234375 41.96484375 C-20.43777262 46.38243883 -17.61743464 49.55749757 -14.5 53.125 C-13.22644373 54.63421882 -11.95431289 56.14464162 -10.68359375 57.65625 C-10.0582373 58.39359375 -9.43288086 59.1309375 -8.78857422 59.890625 C-6.3421804 62.7758069 -3.9244866 65.66971818 -1.5625 68.625 C-0.84191406 69.50414062 -0.12132812 70.38328125 0.62109375 71.2890625 C2.48233104 74.94826555 2.07956405 77.0987428 1 81 C-2.2614615 83.17430767 -3.21546244 83.60234382 -7 83 C-9.2890625 81.0859375 -9.2890625 81.0859375 -11.625 78.375 C-12.05176025 77.88427002 -12.47852051 77.39354004 -12.91821289 76.88793945 C-17.16899986 71.94040347 -21.19748729 66.80730884 -25.171875 61.63671875 C-27.11265206 59.1165747 -29.10438432 56.65064561 -31.140625 54.20703125 C-31.65052979 53.58610596 -32.16043457 52.96518066 -32.68579102 52.32543945 C-33.66197238 51.13881808 -34.64894598 49.96096507 -35.64819336 48.79370117 C-37.69870054 46.27349746 -38.94366964 44.2473924 -39.66796875 41.06640625 C-38.68140601 36.53744865 -36.13630662 33.86938718 -33.125 30.4375 C-31.92563243 29.01945506 -30.72773289 27.60016725 -29.53125 26.1796875 C-28.933125 25.47682617 -28.335 24.77396484 -27.71875 24.04980469 C-25.26350128 21.12164159 -22.93550293 18.10534577 -20.625 15.0625 C-19.43777344 13.50982422 -19.43777344 13.50982422 -18.2265625 11.92578125 C-16.78256802 10.02832184 -15.33978497 8.12993967 -13.8984375 6.23046875 C-13.27195313 5.41191406 -12.64546875 4.59335937 -12 3.75 C-11.46375 3.04359375 -10.9275 2.3371875 -10.375 1.609375 C-7.29996748 -1.98981079 -4.31382663 -0.92439142 0 0 Z " fill="#FAFAFA" transform="translate(203,339)"/>
<path d="M0 0 C2.38152188 2.38152188 2.30975318 2.9227556 2.34765625 6.1796875 C2.19437974 13.3798195 0.23536801 20.19944473 -1.5625 27.125 C-2.30361707 30.04780207 -3.03552784 32.97286534 -3.765625 35.8984375 C-4.04579216 37.01599426 -4.04579216 37.01599426 -4.33161926 38.15612793 C-5.6478398 43.45158759 -6.84986702 48.76438352 -7.984375 54.1015625 C-8.14022568 54.83283356 -8.29607635 55.56410461 -8.45664978 56.3175354 C-9.05845089 59.15346737 -9.65699013 61.9898807 -10.23806763 64.83013916 C-10.63683007 66.77894639 -11.04670463 68.72546981 -11.45703125 70.671875 C-11.68366455 71.7762793 -11.91029785 72.88068359 -12.14379883 74.01855469 C-13.04003008 77.13939187 -14.0546774 79.40155253 -16 82 C-21.7005988 83.62874251 -21.7005988 83.62874251 -24.9375 82.0625 C-28.48552154 75.17516407 -24.72387584 65.43418122 -23.0625 58.4375 C-22.75023568 57.10269318 -22.4386477 55.76772797 -22.12768555 54.43261719 C-21.62845785 52.28984983 -21.12842039 50.14729961 -20.62495422 48.00552368 C-19.4624489 43.0458808 -18.34931161 38.07712281 -17.26307678 33.10023499 C-16.48200822 29.52558384 -15.68846629 25.95375322 -14.89376831 22.3821106 C-14.50713797 20.63136348 -14.12570204 18.87946093 -13.74954224 17.12643433 C-13.21872445 14.6589195 -12.66826078 12.19655089 -12.11328125 9.734375 C-11.88224701 8.62549675 -11.88224701 8.62549675 -11.64654541 7.49421692 C-10.92681443 4.37996093 -10.31446844 2.32394253 -8.06323242 0.00488281 C-5.07347588 -1.45125704 -3.13664176 -0.88644224 0 0 Z " fill="#F8F8F8" transform="translate(268,339)"/>
<path d="M0 0 C0 17.49 0 34.98 0 53 C-6.34709241 51.73058152 -10.51328412 49.14275901 -14.5546875 44.03515625 C-19.34939477 36.64449801 -20.96673298 29.78625668 -20 21 C-18.01253287 13.59757752 -13.3206533 6.72923829 -6.8046875 2.61328125 C-1.68815789 0 -1.68815789 0 0 0 Z " fill="#FBA88F" transform="translate(156,169)"/>
<path d="M0 0 C7.23935117 1.44787023 11.90924521 4.87070855 16 11 C19.87996438 17.47082008 21.13816553 23.51630984 20 31 C17.49327035 40.22984787 13.25975363 46.4128167 4.94140625 51.1796875 C3 52 3 52 0 52 C0 34.84 0 17.68 0 0 Z " fill="#FCA98F" transform="translate(356,170)"/>
<path d="M0 0 C4.79642058 2.39821029 7.60178971 5.20357942 10 10 C10.8565765 14.37028828 10.36877185 17.26245631 8.375 21.25 C5.3809015 24.7168509 2.69192851 27.47238201 -1.953125 28.3828125 C-7.05027553 28.6746341 -10.0736905 27.39090366 -14 24 C-17.39090366 20.0736905 -18.6746341 17.05027553 -18.3828125 11.953125 C-17.47238201 7.30807149 -14.7168509 4.6190985 -11.25 1.625 C-7.26245631 -0.36877185 -4.37028828 -0.8565765 0 0 Z " fill="#7DDAE5" transform="translate(302,180)"/>
<path d="M0 0 C4.79765866 2.39882933 7.565249 5.22414226 10 10 C10.65293024 15.22344192 9.845108 18.58517724 7 23 C3.32297423 26.40124883 0.71377437 27.83832317 -4.3125 28.3125 C-9.97363984 27.83274239 -12.73199141 25.46822047 -16.375 21.25 C-18.36877185 17.26245631 -18.8565765 14.37028828 -18 10 C-14.26064222 2.52128445 -8.36428352 -1.63939957 0 0 Z " fill="#7DDAE6" transform="translate(218,180)"/>
<path d="M0 0 C4.77660478 4.38222379 6.95754559 9.52355032 9.6875 15.3125 C10.18572266 16.33279297 10.68394531 17.35308594 11.19726562 18.40429688 C11.67228516 19.40138672 12.14730469 20.39847656 12.63671875 21.42578125 C13.06686279 22.32723877 13.49700684 23.22869629 13.94018555 24.1574707 C15 27 15 27 16 34 C7.42 34 -1.16 34 -10 34 C-7.74746793 22.73733964 -7.74746793 22.73733964 -6.30859375 18.02734375 C-6.00373047 17.02638672 -5.69886719 16.02542969 -5.38476562 14.99414062 C-4.91586914 13.48110352 -4.91586914 13.48110352 -4.4375 11.9375 C-3.96280273 10.37225586 -3.96280273 10.37225586 -3.47851562 8.77539062 C-1.13375235 1.13375235 -1.13375235 1.13375235 0 0 Z " fill="#E41D61" transform="translate(441,430)"/>
<path d="M0 0 C3.09533749 2.53571615 3.79517274 4.98680439 4.7890625 8.8046875 C5.09070313 9.94550781 5.39234375 11.08632813 5.703125 12.26171875 C6.00734375 13.45410156 6.3115625 14.64648438 6.625 15.875 C6.93695313 17.05964844 7.24890625 18.24429687 7.5703125 19.46484375 C8.83501256 24.30014096 10.01939524 29.09697622 11 34 C2.42 34 -6.16 34 -15 34 C-14.23465437 28.6425806 -13.80554435 25.9773414 -11.6015625 21.42578125 C-11.12203125 20.42869141 -10.6425 19.43160156 -10.1484375 18.40429688 C-9.64570312 17.38400391 -9.14296875 16.36371094 -8.625 15.3125 C-7.8825 13.7646582 -7.8825 13.7646582 -7.125 12.18554688 C-5.01429774 7.8371616 -3.01954326 3.79626575 0 0 Z " fill="#E41D61" transform="translate(70,430)"/>
</svg>
